<svg version="1.1" xmlns="http://www.w3.org/2000/svg" xmlns:xlink="http://www.w3.org/1999/xlink" width="707.72802734375" height="807"><defs/><g><g transform="translate(-14,6) scale(1,1)"><rect fill="#C0C0C0" stroke="none" x="255" y="31" width="120" height="137" opacity="0.2"/></g><g transform="translate(-14,6) scale(1,1)"><rect fill="#ffffff" stroke="none" x="248" y="24" width="120" height="137"/></g><g transform="translate(-14,6) scale(1,1)"><path fill="none" stroke="#000000" d="M 248 24 L 368 24 L 368 161 L 248 161 L 248 24 Z Z" stroke-miterlimit="10"/></g><g transform="translate(-14,6) scale(1,1)"><path fill="none" stroke="#000000" d="M 248 49 L 368 49" stroke-miterlimit="10"/></g><g transform="translate(-14,6) scale(1,1)"><g><path fill="none" stroke="none"/><text fill="#000000" stroke="none" font-family="Arial" font-size="13px" font-style="normal" font-weight="bold" text-decoration="none" x="287.405029296875" y="43.5">Person</text></g></g><g transform="translate(-14,6) scale(1,1)"><g><path fill="none" stroke="none"/><text fill="#000000" stroke="none" font-family="Arial" font-size="13px" font-style="normal" font-weight="normal" text-decoration="none" x="253" y="66.5">-username: String</text></g></g><g transform="translate(-14,6) scale(1,1)"><g><path fill="none" stroke="none"/><text fill="#000000" stroke="none" font-family="Arial" font-size="13px" font-style="normal" font-weight="normal" text-decoration="none" x="253" y="81.5">-password: String</text></g></g><g transform="translate(-14,6) scale(1,1)"><g><path fill="none" stroke="none"/><text fill="#000000" stroke="none" font-family="Arial" font-size="13px" font-style="normal" font-weight="normal" text-decoration="none" x="253" y="96.5">-email: String</text></g></g><g transform="translate(-14,6) scale(1,1)"><g><path fill="none" stroke="none"/><text fill="#000000" stroke="none" font-family="Arial" font-size="13px" font-style="normal" font-weight="normal" text-decoration="none" x="253" y="111.5">-firstName: String</text></g></g><g transform="translate(-14,6) scale(1,1)"><g><path fill="none" stroke="none"/><text fill="#000000" stroke="none" font-family="Arial" font-size="13px" font-style="normal" font-weight="normal" text-decoration="none" x="253" y="126.5">-lastName: String</text></g></g><g transform="translate(-14,6) scale(1,1)"><g><path fill="none" stroke="none"/><text fill="#000000" stroke="none" font-family="Arial" font-size="13px" font-style="normal" font-weight="normal" text-decoration="none" x="253" y="141.5">-created: Date</text></g></g><g transform="translate(-14,6) scale(1,1)"><g><path fill="none" stroke="none"/><text fill="#000000" stroke="none" font-family="Arial" font-size="13px" font-style="normal" font-weight="normal" text-decoration="none" x="253" y="156.5">-updated: Date</text></g></g><g transform="translate(-14,6) scale(1,1)"><rect fill="#C0C0C0" stroke="none" x="183" y="207" width="95" height="63" opacity="0.2"/></g><g transform="translate(-14,6) scale(1,1)"><rect fill="#ffffff" stroke="none" x="176" y="200" width="95" height="63"/></g><g transform="translate(-14,6) scale(1,1)"><path fill="none" stroke="#000000" d="M 176 200 L 271 200 L 271 263 L 176 263 L 176 200 Z Z" stroke-miterlimit="10"/></g><g transform="translate(-14,6) scale(1,1)"><path fill="none" stroke="#000000" d="M 176 225 L 271 225" stroke-miterlimit="10"/></g><g transform="translate(-14,6) scale(1,1)"><g><path fill="none" stroke="none"/><text fill="#000000" stroke="none" font-family="Arial" font-size="13px" font-style="normal" font-weight="bold" text-decoration="none" x="205.075927734375" y="219.5">Admin</text></g></g><g transform="translate(-14,6) scale(1,1)"><rect fill="#C0C0C0" stroke="none" x="287" y="207" width="95" height="64" opacity="0.2"/></g><g transform="translate(-14,6) scale(1,1)"><rect fill="#ffffff" stroke="none" x="280" y="200" width="95" height="64"/></g><g transform="translate(-14,6) scale(1,1)"><path fill="none" stroke="#000000" d="M 280 200 L 375 200 L 375 264 L 280 264 L 280 200 Z Z" stroke-miterlimit="10"/></g><g transform="translate(-14,6) scale(1,1)"><path fill="none" stroke="#000000" d="M 280 225 L 375 225" stroke-miterlimit="10"/></g><g transform="translate(-14,6) scale(1,1)"><g><path fill="none" stroke="none"/><text fill="#000000" stroke="none" font-family="Arial" font-size="13px" font-style="normal" font-weight="bold" text-decoration="none" x="297.87548828125" y="219.5">Moderator</text></g></g><g transform="translate(-14,6) scale(1,1)"><rect fill="#C0C0C0" stroke="none" x="39" y="199" width="110.14990234375" height="77" opacity="0.2"/></g><g transform="translate(-14,6) scale(1,1)"><rect fill="#ffffff" stroke="none" x="32" y="192" width="110.14990234375" height="77"/></g><g transform="translate(-14,6) scale(1,1)"><path fill="none" stroke="#000000" d="M 32 192 L 142.14990234375 192 L 142.14990234375 269 L 32 269 L 32 192 Z Z" stroke-miterlimit="10"/></g><g transform="translate(-14,6) scale(1,1)"><path fill="none" stroke="#000000" d="M 32 217 L 142.14990234375 217" stroke-miterlimit="10"/></g><g transform="translate(-14,6) scale(1,1)"><g><path fill="none" stroke="none"/><text fill="#000000" stroke="none" font-family="Arial" font-size="13px" font-style="normal" font-weight="bold" text-decoration="none" x="59.621337890625" y="211.5">Employer</text></g></g><g transform="translate(-14,6) scale(1,1)"><g><path fill="none" stroke="none"/><text fill="#000000" stroke="none" font-family="Arial" font-size="13px" font-style="normal" font-weight="normal" text-decoration="none" x="37" y="234.5">-company: String</text></g></g><g transform="translate(-14,6) scale(1,1)"><g><path fill="none" stroke="none"/><text fill="#000000" stroke="none" font-family="Arial" font-size="13px" font-style="normal" font-weight="normal" text-decoration="none" x="37" y="249.5">-position: String</text></g></g><g transform="translate(-14,6) scale(1,1)"><g><path fill="none" stroke="none"/><text fill="#000000" stroke="none" font-family="Arial" font-size="13px" font-style="normal" font-weight="normal" text-decoration="none" x="37" y="264.5">-tenure: String</text></g></g><g transform="translate(-14,6) scale(1,1)"><rect fill="#C0C0C0" stroke="none" x="447" y="207" width="161.8388671875" height="77" opacity="0.2"/></g><g transform="translate(-14,6) scale(1,1)"><rect fill="#ffffff" stroke="none" x="440" y="200" width="161.8388671875" height="77"/></g><g transform="translate(-14,6) scale(1,1)"><path fill="none" stroke="#000000" d="M 440 200 L 601.8388671875 200 L 601.8388671875 277 L 440 277 L 440 200 Z Z" stroke-miterlimit="10"/></g><g transform="translate(-14,6) scale(1,1)"><path fill="none" stroke="#000000" d="M 440 225 L 601.8388671875 225" stroke-miterlimit="10"/></g><g transform="translate(-14,6) scale(1,1)"><g><path fill="none" stroke="none"/><text fill="#000000" stroke="none" font-family="Arial" font-size="13px" font-style="normal" font-weight="bold" text-decoration="none" x="488.03857421875" y="219.5">Job Seeker</text></g></g><g transform="translate(-14,6) scale(1,1)"><g><path fill="none" stroke="none"/><text fill="#000000" stroke="none" font-family="Arial" font-size="13px" font-style="normal" font-weight="normal" text-decoration="none" x="445" y="242.5">-interestedPosition: String</text></g></g><g transform="translate(-14,6) scale(1,1)"><g><path fill="none" stroke="none"/><text fill="#000000" stroke="none" font-family="Arial" font-size="13px" font-style="normal" font-weight="normal" text-decoration="none" x="445" y="257.5">-jobType: JobType</text></g></g><g transform="translate(-14,6) scale(1,1)"><g><path fill="none" stroke="none"/><text fill="#000000" stroke="none" font-family="Arial" font-size="13px" font-style="normal" font-weight="normal" text-decoration="none" x="445" y="272.5">-totalExperience: String</text></g></g><g transform="translate(-14,6) scale(1,1)"><rect fill="#C0C0C0" stroke="none" x="31" y="39" width="103" height="63" opacity="0.2"/></g><g transform="translate(-14,6) scale(1,1)"><rect fill="#ffffff" stroke="none" x="24" y="32" width="103" height="63"/></g><g transform="translate(-14,6) scale(1,1)"><path fill="none" stroke="#000000" d="M 24 32 L 127 32 L 127 95 L 24 95 L 24 32 Z Z" stroke-miterlimit="10"/></g><g transform="translate(-14,6) scale(1,1)"><path fill="none" stroke="#000000" d="M 24 57 L 127 57" stroke-miterlimit="10"/></g><g transform="translate(-14,6) scale(1,1)"><g><path fill="none" stroke="none"/><text fill="#000000" stroke="none" font-family="Arial" font-size="13px" font-style="normal" font-weight="bold" text-decoration="none" x="62.1318359375" y="51.5">Role</text></g></g><g transform="translate(-14,6) scale(1,1)"><g><path fill="none" stroke="none"/><text fill="#000000" stroke="none" font-family="Arial" font-size="13px" font-style="normal" font-weight="normal" text-decoration="none" x="29" y="74.5">-role: RoleType</text></g></g><g transform="translate(-14,6) scale(1,1)"><rect fill="#C0C0C0" stroke="none" x="159" y="287" width="135" height="167" opacity="0.2"/></g><g transform="translate(-14,6) scale(1,1)"><rect fill="#ffffff" stroke="none" x="152" y="280" width="135" height="167"/></g><g transform="translate(-14,6) scale(1,1)"><path fill="none" stroke="#000000" d="M 152 280 L 287 280 L 287 447 L 152 447 L 152 280 Z Z" stroke-miterlimit="10"/></g><g transform="translate(-14,6) scale(1,1)"><path fill="none" stroke="#000000" d="M 152 305 L 287 305" stroke-miterlimit="10"/></g><g transform="translate(-14,6) scale(1,1)"><g><path fill="none" stroke="none"/><text fill="#000000" stroke="none" font-family="Arial" font-size="13px" font-style="normal" font-weight="bold" text-decoration="none" x="209.02001953125" y="299.5">Job</text></g></g><g transform="translate(-14,6) scale(1,1)"><g><path fill="none" stroke="none"/><text fill="#000000" stroke="none" font-family="Arial" font-size="13px" font-style="normal" font-weight="normal" text-decoration="none" x="157" y="322.5">-company: String</text></g></g><g transform="translate(-14,6) scale(1,1)"><g><path fill="none" stroke="none"/><text fill="#000000" stroke="none" font-family="Arial" font-size="13px" font-style="normal" font-weight="normal" text-decoration="none" x="157" y="337.5">-position: String</text></g></g><g transform="translate(-14,6) scale(1,1)"><g><path fill="none" stroke="none"/><text fill="#000000" stroke="none" font-family="Arial" font-size="13px" font-style="normal" font-weight="normal" text-decoration="none" x="157" y="352.5">-city: String</text></g></g><g transform="translate(-14,6) scale(1,1)"><g><path fill="none" stroke="none"/><text fill="#000000" stroke="none" font-family="Arial" font-size="13px" font-style="normal" font-weight="normal" text-decoration="none" x="157" y="367.5">-state: String</text></g></g><g transform="translate(-14,6) scale(1,1)"><g><path fill="none" stroke="none"/><text fill="#000000" stroke="none" font-family="Arial" font-size="13px" font-style="normal" font-weight="normal" text-decoration="none" x="157" y="382.5">-country: String</text></g></g><g transform="translate(-14,6) scale(1,1)"><g><path fill="none" stroke="none"/><text fill="#000000" stroke="none" font-family="Arial" font-size="13px" font-style="normal" font-weight="normal" text-decoration="none" x="157" y="397.5">-description: String</text></g></g><g transform="translate(-14,6) scale(1,1)"><g><path fill="none" stroke="none"/><text fill="#000000" stroke="none" font-family="Arial" font-size="13px" font-style="normal" font-weight="normal" text-decoration="none" x="157" y="412.5">-postedDate: Date</text></g></g><g transform="translate(-14,6) scale(1,1)"><g><path fill="none" stroke="none"/><text fill="#000000" stroke="none" font-family="Arial" font-size="13px" font-style="normal" font-weight="normal" text-decoration="none" x="157" y="427.5">-expired: boolean</text></g></g><g transform="translate(-14,6) scale(1,1)"><g><path fill="none" stroke="none"/><text fill="#000000" stroke="none" font-family="Arial" font-size="13px" font-style="normal" font-weight="normal" text-decoration="none" x="157" y="442.5">-totalApplications: int</text></g></g><g transform="translate(-14,6) scale(1,1)"><path fill="none" stroke="#000000" d="M 463 199 L 369 134" stroke-miterlimit="10"/></g><g transform="translate(-14,6) scale(1,1)"><path fill="#FFFFFF" stroke="none" d="M 390.506111407199 138.63542577776263 L 369 134 L 380.92937621184086 152.48485821412663"/></g><g transform="translate(-14,6) scale(1,1)"><path fill="none" stroke="#000000" d="M 390.506111407199 138.63542577776263 L 369 134 L 380.92937621184086 152.48485821412663 L 390.506111407199 138.63542577776263" stroke-miterlimit="10"/></g><g transform="translate(-14,6) scale(1,1)"><g><path fill="none" stroke="none"/><text fill="#000000" stroke="none" font-family="Arial" font-size="13px" font-style="normal" font-weight="normal" text-decoration="none" x="397.13134765625" y="191.5">-is a</text></g></g><g transform="translate(-14,6) scale(1,1)"><path fill="none" stroke="#000000" d="M 263 200 L 263 161" stroke-miterlimit="10"/></g><g transform="translate(-14,6) scale(1,1)"><path fill="#FFFFFF" stroke="none" d="M 271.419035512032 181.3253497152483 L 263 161 L 254.58096448796803 181.3253497152483"/></g><g transform="translate(-14,6) scale(1,1)"><path fill="none" stroke="#000000" d="M 271.419035512032 181.3253497152483 L 263 161 L 254.58096448796803 181.3253497152483 L 271.419035512032 181.3253497152483" stroke-miterlimit="10"/></g><g transform="translate(-14,6) scale(1,1)"><g><path fill="none" stroke="none"/><text fill="#000000" stroke="none" font-family="Arial" font-size="13px" font-style="normal" font-weight="normal" text-decoration="none" x="209.13134765625" y="196.5">-is a</text></g></g><g transform="translate(-14,6) scale(1,1)"><path fill="none" stroke="#000000" d="M 143 195 L 247 130" stroke-miterlimit="10"/></g><g transform="translate(-14,6) scale(1,1)"><path fill="#FFFFFF" stroke="none" d="M 234.2262178103852 147.91174163983726 L 247 130 L 225.30205801593306 133.63308596871383"/></g><g transform="translate(-14,6) scale(1,1)"><path fill="none" stroke="#000000" d="M 234.2262178103852 147.91174163983726 L 247 130 L 225.30205801593306 133.63308596871383 L 234.2262178103852 147.91174163983726" stroke-miterlimit="10"/></g><g transform="translate(-14,6) scale(1,1)"><g><path fill="none" stroke="none"/><text fill="#000000" stroke="none" font-family="Arial" font-size="13px" font-style="normal" font-weight="normal" text-decoration="none" x="152.13134765625" y="159.5">-is a</text></g></g><g transform="translate(-14,6) scale(1,1)"><path fill="none" stroke="#000000" d="M 123 269 L 123 344 L 152 344" stroke-miterlimit="10"/></g><g transform="translate(-14,6) scale(1,1)"><g><path fill="none" stroke="none"/><text fill="#000000" stroke="none" font-family="Arial" font-size="13px" font-style="normal" font-weight="normal" text-decoration="none" x="111.13134765625" y="364.5">-post</text></g></g><g transform="translate(-14,6) scale(1,1)"><g><path fill="none" stroke="none"/><text fill="#000000" stroke="none" font-family="Arial" font-size="13px" font-style="normal" font-weight="normal" text-decoration="none" x="105.9951171875" y="296.5">1</text></g></g><g transform="translate(-14,6) scale(1,1)"><g><path fill="none" stroke="none"/><text fill="#000000" stroke="none" font-family="Arial" font-size="13px" font-style="normal" font-weight="normal" text-decoration="none" x="135.10302734375" y="339.5">*</text></g></g><g transform="translate(-14,6) scale(1,1)"><path fill="none" stroke="#000000" d="M 344 264 L 344 333 L 287 333" stroke-miterlimit="10"/></g><g transform="translate(-14,6) scale(1,1)"><path fill="none" stroke="#000000" d="M 222 263 L 222 280" stroke-miterlimit="10"/></g><g transform="translate(-14,6) scale(1,1)"><path fill="none" stroke="#000000" d="M 127 68 L 248 68" stroke-miterlimit="10"/></g><g transform="translate(-14,6) scale(1,1)"><path fill="#FFFFFF" stroke="none" d="M 237.83732514237585 72.20951775601598 L 248 68 L 237.83732514237585 63.790482243984016 L 226 68"/></g><g transform="translate(-14,6) scale(1,1)"><path fill="none" stroke="#000000" d="M 237.83732514237585 72.20951775601598 L 248 68 L 237.83732514237585 63.790482243984016 L 226 68 L 237.83732514237585 72.20951775601598" stroke-miterlimit="10"/></g><g transform="translate(-14,6) scale(1,1)"><g><path fill="none" stroke="none"/><text fill="#000000" stroke="none" font-family="Arial" font-size="13px" font-style="normal" font-weight="normal" text-decoration="none" x="169.13134765625" y="59.5">-has a</text></g></g><g transform="translate(-14,6) scale(1,1)"><g><path fill="none" stroke="none"/><text fill="#000000" stroke="none" font-family="Arial" font-size="13px" font-style="normal" font-weight="normal" text-decoration="none" x="138.099609375" y="86.5">1..*</text></g></g><g transform="translate(-14,6) scale(1,1)"><g><path fill="none" stroke="none"/><text fill="#000000" stroke="none" font-family="Arial" font-size="13px" font-style="normal" font-weight="normal" text-decoration="none" x="223.10302734375" y="86.5">*</text></g></g><g transform="translate(-14,6) scale(1,1)"><path fill="none" stroke="#000000" d="M 318 200 L 318 161" stroke-miterlimit="10"/></g><g transform="translate(-14,6) scale(1,1)"><path fill="#FFFFFF" stroke="none" d="M 326.419035512032 181.3253497152483 L 318 161 L 309.580964487968 181.3253497152483"/></g><g transform="translate(-14,6) scale(1,1)"><path fill="none" stroke="#000000" d="M 326.419035512032 181.3253497152483 L 318 161 L 309.580964487968 181.3253497152483 L 326.419035512032 181.3253497152483" stroke-miterlimit="10"/></g><g transform="translate(-14,6) scale(1,1)"><g><path fill="none" stroke="none"/><text fill="#000000" stroke="none" font-family="Arial" font-size="13px" font-style="normal" font-weight="normal" text-decoration="none" x="289.13134765625" y="194.5">-is a</text></g></g><g transform="translate(-14,6) scale(1,1)"><rect fill="#C0C0C0" stroke="none" x="319" y="591" width="167" height="72" opacity="0.2"/></g><g transform="translate(-14,6) scale(1,1)"><rect fill="#ffffff" stroke="none" x="312" y="584" width="167" height="72"/></g><g transform="translate(-14,6) scale(1,1)"><path fill="none" stroke="#000000" d="M 312 584 L 479 584 L 479 656 L 312 656 L 312 584 Z Z" stroke-miterlimit="10"/></g><g transform="translate(-14,6) scale(1,1)"><path fill="none" stroke="#000000" d="M 312 609 L 479 609" stroke-miterlimit="10"/></g><g transform="translate(-14,6) scale(1,1)"><g><path fill="none" stroke="none"/><text fill="#000000" stroke="none" font-family="Arial" font-size="13px" font-style="normal" font-weight="bold" text-decoration="none" x="377.075927734375" y="603.5">Profile</text></g></g><g transform="translate(-14,6) scale(1,1)"><g><path fill="none" stroke="none"/><text fill="#000000" stroke="none" font-family="Arial" font-size="13px" font-style="normal" font-weight="normal" text-decoration="none" x="317" y="626.5">-workExperience: String</text></g></g><g transform="translate(-14,6) scale(1,1)"><g><path fill="none" stroke="none"/><text fill="#000000" stroke="none" font-family="Arial" font-size="13px" font-style="normal" font-weight="normal" text-decoration="none" x="317" y="641.5">-aboutMe: String</text></g></g><g transform="translate(-14,6) scale(1,1)"><path fill="none" stroke="#000000" d="M 312 620 L 80 620 L 80 269" stroke-miterlimit="10"/></g><g transform="translate(-14,6) scale(1,1)"><path fill="#000000" stroke="none" d="M 84.20951775601598 279.16267485762415 L 80 269 L 75.79048224398402 279.16267485762415 L 80 291"/></g><g transform="translate(-14,6) scale(1,1)"><path fill="none" stroke="#000000" d="M 84.20951775601598 279.16267485762415 L 80 269 L 75.79048224398402 279.16267485762415 L 80 291 L 84.20951775601598 279.16267485762415" stroke-miterlimit="10"/></g><g transform="translate(-14,6) scale(1,1)"><g><path fill="none" stroke="none"/><text fill="#000000" stroke="none" font-family="Arial" font-size="13px" font-style="normal" font-weight="normal" text-decoration="none" x="47.13134765625" y="387.5">-has</text></g></g><g transform="translate(-14,6) scale(1,1)"><g><path fill="none" stroke="none"/><text fill="#000000" stroke="none" font-family="Arial" font-size="13px" font-style="normal" font-weight="normal" text-decoration="none" x="278.99169921875" y="613.5">0..1</text></g></g><g transform="translate(-14,6) scale(1,1)"><g><path fill="none" stroke="none"/><text fill="#000000" stroke="none" font-family="Arial" font-size="13px" font-style="normal" font-weight="normal" text-decoration="none" x="62.9951171875" y="292.5">1</text></g></g><g transform="translate(-14,6) scale(1,1)"><rect fill="#C0C0C0" stroke="none" x="351" y="719" width="103" height="72" opacity="0.2"/></g><g transform="translate(-14,6) scale(1,1)"><rect fill="#ffffff" stroke="none" x="344" y="712" width="103" height="72"/></g><g transform="translate(-14,6) scale(1,1)"><path fill="none" stroke="#000000" d="M 344 712 L 447 712 L 447 784 L 344 784 L 344 712 Z Z" stroke-miterlimit="10"/></g><g transform="translate(-14,6) scale(1,1)"><path fill="none" stroke="#000000" d="M 344 737 L 447 737" stroke-miterlimit="10"/></g><g transform="translate(-14,6) scale(1,1)"><g><path fill="none" stroke="none"/><text fill="#000000" stroke="none" font-family="Arial" font-size="13px" font-style="normal" font-weight="bold" text-decoration="none" x="373.825927734375" y="731.5">Awards</text></g></g><g transform="translate(-14,6) scale(1,1)"><g><path fill="none" stroke="none"/><text fill="#000000" stroke="none" font-family="Arial" font-size="13px" font-style="normal" font-weight="normal" text-decoration="none" x="349" y="754.5">-name: String</text></g></g><g transform="translate(-14,6) scale(1,1)"><g><path fill="none" stroke="none"/><text fill="#000000" stroke="none" font-family="Arial" font-size="13px" font-style="normal" font-weight="normal" text-decoration="none" x="349" y="769.5">-date: Date</text></g></g><g transform="translate(-14,6) scale(1,1)"><rect fill="#C0C0C0" stroke="none" x="183" y="711" width="127" height="87" opacity="0.2"/></g><g transform="translate(-14,6) scale(1,1)"><rect fill="#ffffff" stroke="none" x="176" y="704" width="127" height="87"/></g><g transform="translate(-14,6) scale(1,1)"><path fill="none" stroke="#000000" d="M 176 704 L 303 704 L 303 791 L 176 791 L 176 704 Z Z" stroke-miterlimit="10"/></g><g transform="translate(-14,6) scale(1,1)"><path fill="none" stroke="#000000" d="M 176 729 L 303 729" stroke-miterlimit="10"/></g><g transform="translate(-14,6) scale(1,1)"><g><path fill="none" stroke="none"/><text fill="#000000" stroke="none" font-family="Arial" font-size="13px" font-style="normal" font-weight="bold" text-decoration="none" x="219.27001953125" y="723.5">Project</text></g></g><g transform="translate(-14,6) scale(1,1)"><g><path fill="none" stroke="none"/><text fill="#000000" stroke="none" font-family="Arial" font-size="13px" font-style="normal" font-weight="normal" text-decoration="none" x="181" y="746.5">-name: String</text></g></g><g transform="translate(-14,6) scale(1,1)"><g><path fill="none" stroke="none"/><text fill="#000000" stroke="none" font-family="Arial" font-size="13px" font-style="normal" font-weight="normal" text-decoration="none" x="181" y="761.5">-description: String</text></g></g><g transform="translate(-14,6) scale(1,1)"><g><path fill="none" stroke="none"/><text fill="#000000" stroke="none" font-family="Arial" font-size="13px" font-style="normal" font-weight="normal" text-decoration="none" x="181" y="776.5">-link: String</text></g></g><g transform="translate(-14,6) scale(1,1)"><rect fill="#C0C0C0" stroke="none" x="527" y="719" width="119" height="63" opacity="0.2"/></g><g transform="translate(-14,6) scale(1,1)"><rect fill="#ffffff" stroke="none" x="520" y="712" width="119" height="63"/></g><g transform="translate(-14,6) scale(1,1)"><path fill="none" stroke="#000000" d="M 520 712 L 639 712 L 639 775 L 520 775 L 520 712 Z Z" stroke-miterlimit="10"/></g><g transform="translate(-14,6) scale(1,1)"><path fill="none" stroke="#000000" d="M 520 737 L 639 737" stroke-miterlimit="10"/></g><g transform="translate(-14,6) scale(1,1)"><g><path fill="none" stroke="none"/><text fill="#000000" stroke="none" font-family="Arial" font-size="13px" font-style="normal" font-weight="bold" text-decoration="none" x="564.332275390625" y="731.5">Skills</text></g></g><g transform="translate(-14,6) scale(1,1)"><g><path fill="none" stroke="none"/><text fill="#000000" stroke="none" font-family="Arial" font-size="13px" font-style="normal" font-weight="normal" text-decoration="none" x="525" y="754.5">-name: String</text></g></g><g transform="translate(-14,6) scale(1,1)"><rect fill="#C0C0C0" stroke="none" x="623" y="135" width="95.72802734375" height="112" opacity="0.2"/></g><g transform="translate(-14,6) scale(1,1)"><rect fill="#ffffff" stroke="none" x="616" y="128" width="95.72802734375" height="112"/></g><g transform="translate(-14,6) scale(1,1)"><path fill="none" stroke="#000000" d="M 616 128 L 711.72802734375 128 L 711.72802734375 240 L 616 240 L 616 128 Z Z" stroke-miterlimit="10"/></g><g transform="translate(-14,6) scale(1,1)"><path fill="none" stroke="#000000" d="M 616 166 L 711.72802734375 166" stroke-miterlimit="10"/></g><g transform="translate(-14,6) scale(1,1)"><g><path fill="none" stroke="none"/><text fill="#000000" stroke="none" font-family="Arial" font-size="13px" font-style="normal" font-weight="normal" text-decoration="none" x="620.5" y="145.5">«enumeration»</text></g></g><g transform="translate(-14,6) scale(1,1)"><g><path fill="none" stroke="none"/><text fill="#000000" stroke="none" font-family="Arial" font-size="13px" font-style="normal" font-weight="bold" text-decoration="none" x="636.04541015625" y="160.5">RoleType</text></g></g><g transform="translate(-14,6) scale(1,1)"><g><path fill="none" stroke="none"/><text fill="#000000" stroke="none" font-family="Arial" font-size="13px" font-style="normal" font-weight="normal" text-decoration="none" x="621" y="183.5">Admin</text></g></g><g transform="translate(-14,6) scale(1,1)"><g><path fill="none" stroke="none"/><text fill="#000000" stroke="none" font-family="Arial" font-size="13px" font-style="normal" font-weight="normal" text-decoration="none" x="621" y="198.5">Moderator</text></g></g><g transform="translate(-14,6) scale(1,1)"><g><path fill="none" stroke="none"/><text fill="#000000" stroke="none" font-family="Arial" font-size="13px" font-style="normal" font-weight="normal" text-decoration="none" x="621" y="213.5">Employer</text></g></g><g transform="translate(-14,6) scale(1,1)"><g><path fill="none" stroke="none"/><text fill="#000000" stroke="none" font-family="Arial" font-size="13px" font-style="normal" font-weight="normal" text-decoration="none" x="621" y="228.5">JobSeeker</text></g></g><g transform="translate(-14,6) scale(1,1)"><path fill="none" stroke="#000000" d="M 456 277 L 456 344 L 287 344" stroke-miterlimit="10"/></g><g transform="translate(-14,6) scale(1,1)"><g><path fill="none" stroke="none"/><text fill="#000000" stroke="none" font-family="Arial" font-size="13px" font-style="normal" font-weight="normal" text-decoration="none" x="384.13134765625" y="331.5">-apply</text></g></g><g transform="translate(-14,6) scale(1,1)"><g><path fill="none" stroke="none"/><text fill="#000000" stroke="none" font-family="Arial" font-size="13px" font-style="normal" font-weight="normal" text-decoration="none" x="440.726806640625" y="304.5">*</text></g></g><g transform="translate(-14,6) scale(1,1)"><g><path fill="none" stroke="none"/><text fill="#000000" stroke="none" font-family="Arial" font-size="13px" font-style="normal" font-weight="normal" text-decoration="none" x="305.10302734375" y="337.5">*</text></g></g><g transform="translate(-14,6) scale(1,1)"><rect fill="#C0C0C0" stroke="none" x="343" y="471" width="135" height="88" opacity="0.2"/></g><g transform="translate(-14,6) scale(1,1)"><rect fill="#ffffff" stroke="none" x="336" y="464" width="135" height="88"/></g><g transform="translate(-14,6) scale(1,1)"><path fill="none" stroke="#000000" d="M 336 464 L 471 464 L 471 552 L 336 552 L 336 464 Z Z" stroke-miterlimit="10"/></g><g transform="translate(-14,6) scale(1,1)"><path fill="none" stroke="#000000" d="M 336 489 L 471 489" stroke-miterlimit="10"/></g><g transform="translate(-14,6) scale(1,1)"><g><path fill="none" stroke="none"/><text fill="#000000" stroke="none" font-family="Arial" font-size="13px" font-style="normal" font-weight="bold" text-decoration="none" x="380.740478515625" y="483.5">Queries</text></g></g><g transform="translate(-14,6) scale(1,1)"><g><path fill="none" stroke="none"/><text fill="#000000" stroke="none" font-family="Arial" font-size="13px" font-style="normal" font-weight="normal" text-decoration="none" x="341" y="506.5">-post: String</text></g></g><g transform="translate(-14,6) scale(1,1)"><g><path fill="none" stroke="none"/><text fill="#000000" stroke="none" font-family="Arial" font-size="13px" font-style="normal" font-weight="normal" text-decoration="none" x="341" y="521.5">-created: Date</text></g></g><g transform="translate(-14,6) scale(1,1)"><g><path fill="none" stroke="none"/><text fill="#000000" stroke="none" font-family="Arial" font-size="13px" font-style="normal" font-weight="normal" text-decoration="none" x="341" y="536.5">-status: boolean</text></g></g><g transform="translate(-14,6) scale(1,1)"><path fill="none" stroke="#000000" d="M 104 269 L 104 500 L 336 500" stroke-miterlimit="10"/></g><g transform="translate(-14,6) scale(1,1)"><g><path fill="none" stroke="none"/><text fill="#000000" stroke="none" font-family="Arial" font-size="13px" font-style="normal" font-weight="normal" text-decoration="none" x="113.13134765625" y="523.5">-resolve</text></g></g><g transform="translate(-14,6) scale(1,1)"><g><path fill="none" stroke="none"/><text fill="#000000" stroke="none" font-family="Arial" font-size="13px" font-style="normal" font-weight="normal" text-decoration="none" x="86.726806640625" y="292.5">*</text></g></g><g transform="translate(-14,6) scale(1,1)"><g><path fill="none" stroke="none"/><text fill="#000000" stroke="none" font-family="Arial" font-size="13px" font-style="normal" font-weight="normal" text-decoration="none" x="311.10302734375" y="518.5">*</text></g></g><g transform="translate(-14,6) scale(1,1)"><path fill="none" stroke="#000000" d="M 575 277 L 575 532 L 471 532" stroke-miterlimit="10"/></g><g transform="translate(-14,6) scale(1,1)"><g><path fill="none" stroke="none"/><text fill="#000000" stroke="none" font-family="Arial" font-size="13px" font-style="normal" font-weight="normal" text-decoration="none" x="487.5" y="491.5">-create resolve</text></g></g><g transform="translate(-14,6) scale(1,1)"><g><path fill="none" stroke="none"/><text fill="#000000" stroke="none" font-family="Arial" font-size="13px" font-style="normal" font-weight="normal" text-decoration="none" x="557.9951171875" y="304.5">1</text></g></g><g transform="translate(-14,6) scale(1,1)"><g><path fill="none" stroke="none"/><text fill="#000000" stroke="none" font-family="Arial" font-size="13px" font-style="normal" font-weight="normal" text-decoration="none" x="489.726806640625" y="525.5">*</text></g></g><g transform="translate(-14,6) scale(1,1)"><path fill="none" stroke="#000000" d="M 350 657 L 293 703" stroke-miterlimit="10"/></g><g transform="translate(-14,6) scale(1,1)"><g><path fill="none" stroke="none"/><text fill="#000000" stroke="none" font-family="Arial" font-size="13px" font-style="normal" font-weight="normal" text-decoration="none" x="301.9951171875" y="675.5">1</text></g></g><g transform="translate(-14,6) scale(1,1)"><g><path fill="none" stroke="none"/><text fill="#000000" stroke="none" font-family="Arial" font-size="13px" font-style="normal" font-weight="normal" text-decoration="none" x="265.10302734375" y="695.5">*</text></g></g><g transform="translate(-14,6) scale(1,1)"><path fill="none" stroke="#000000" d="M 395 657 L 395 711" stroke-miterlimit="10"/></g><g transform="translate(-14,6) scale(1,1)"><g><path fill="none" stroke="none"/><text fill="#000000" stroke="none" font-family="Arial" font-size="13px" font-style="normal" font-weight="normal" text-decoration="none" x="376.9951171875" y="670.5">1</text></g></g><g transform="translate(-14,6) scale(1,1)"><g><path fill="none" stroke="none"/><text fill="#000000" stroke="none" font-family="Arial" font-size="13px" font-style="normal" font-weight="normal" text-decoration="none" x="376.5" y="699.5">*</text></g></g><g transform="translate(-14,6) scale(1,1)"><path fill="none" stroke="#000000" d="M 450 657 L 531 711" stroke-miterlimit="10"/></g><g transform="translate(-14,6) scale(1,1)"><g><path fill="none" stroke="none"/><text fill="#000000" stroke="none" font-family="Arial" font-size="13px" font-style="normal" font-weight="normal" text-decoration="none" x="456.9951171875" y="685.5">1</text></g></g><g transform="translate(-14,6) scale(1,1)"><g><path fill="none" stroke="none"/><text fill="#000000" stroke="none" font-family="Arial" font-size="13px" font-style="normal" font-weight="normal" text-decoration="none" x="503.10302734375" y="715.5">*</text></g></g><g transform="translate(-14,6) scale(1,1)"><path fill="none" stroke="#000000" d="M 479 620 L 600 620 L 600 277" stroke-miterlimit="10"/></g><g transform="translate(-14,6) scale(1,1)"><path fill="#000000" stroke="none" d="M 604.209517756016 287.16267485762415 L 600 277 L 595.790482243984 287.16267485762415 L 600 299"/></g><g transform="translate(-14,6) scale(1,1)"><path fill="none" stroke="#000000" d="M 604.209517756016 287.16267485762415 L 600 277 L 595.790482243984 287.16267485762415 L 600 299 L 604.209517756016 287.16267485762415" stroke-miterlimit="10"/></g><g transform="translate(-14,6) scale(1,1)"><g><path fill="none" stroke="none"/><text fill="#000000" stroke="none" font-family="Arial" font-size="13px" font-style="normal" font-weight="normal" text-decoration="none" x="608.13134765625" y="332.5">-has</text></g></g><g transform="translate(-14,6) scale(1,1)"><g><path fill="none" stroke="none"/><text fill="#000000" stroke="none" font-family="Arial" font-size="13px" font-style="normal" font-weight="normal" text-decoration="none" x="488.99169921875" y="638.5">0..1</text></g></g><g transform="translate(-14,6) scale(1,1)"><g><path fill="none" stroke="none"/><text fill="#000000" stroke="none" font-family="Arial" font-size="13px" font-style="normal" font-weight="normal" text-decoration="none" x="607.9951171875" y="304.5">1</text></g></g><g transform="translate(-14,6) scale(1,1)"><path fill="none" stroke="#000000" d="M 308 24 L 308 4 L 398 4 L 398 92 L 368 92" stroke-miterlimit="10"/></g><g transform="translate(-14,6) scale(1,1)"><g><path fill="none" stroke="none"/><text fill="#000000" stroke="none" font-family="Arial" font-size="13px" font-style="normal" font-weight="normal" text-decoration="none" x="408.13134765625" y="52.5">-follow unfollow</text></g></g><g transform="translate(-14,6) scale(1,1)"><rect fill="#C0C0C0" stroke="none" x="39" y="679" width="111" height="96" opacity="0.2"/></g><g transform="translate(-14,6) scale(1,1)"><rect fill="#ffffff" stroke="none" x="32" y="672" width="111" height="96"/></g><g transform="translate(-14,6) scale(1,1)"><path fill="none" stroke="#000000" d="M 32 672 L 143 672 L 143 768 L 32 768 L 32 672 Z Z" stroke-miterlimit="10"/></g><g transform="translate(-14,6) scale(1,1)"><path fill="none" stroke="#000000" d="M 32 697 L 143 697" stroke-miterlimit="10"/></g><g transform="translate(-14,6) scale(1,1)"><g><path fill="none" stroke="none"/><text fill="#000000" stroke="none" font-family="Arial" font-size="13px" font-style="normal" font-weight="bold" text-decoration="none" x="59.681396484375" y="691.5">Company</text></g></g><g transform="translate(-14,6) scale(1,1)"><g><path fill="none" stroke="none"/><text fill="#000000" stroke="none" font-family="Arial" font-size="13px" font-style="normal" font-weight="normal" text-decoration="none" x="37" y="714.5">-name: String</text></g></g><g transform="translate(-14,6) scale(1,1)"><g><path fill="none" stroke="none"/><text fill="#000000" stroke="none" font-family="Arial" font-size="13px" font-style="normal" font-weight="normal" text-decoration="none" x="37" y="729.5">-city: String</text></g></g><g transform="translate(-14,6) scale(1,1)"><g><path fill="none" stroke="none"/><text fill="#000000" stroke="none" font-family="Arial" font-size="13px" font-style="normal" font-weight="normal" text-decoration="none" x="37" y="744.5">-state: String</text></g></g><g transform="translate(-14,6) scale(1,1)"><g><path fill="none" stroke="none"/><text fill="#000000" stroke="none" font-family="Arial" font-size="13px" font-style="normal" font-weight="normal" text-decoration="none" x="37" y="759.5">-country: String</text></g></g><g transform="translate(-14,6) scale(1,1)"><path fill="none" stroke="#000000" d="M 40 269 L 40 672" stroke-miterlimit="10"/></g><g transform="translate(-14,6) scale(1,1)"><g><path fill="none" stroke="none"/><text fill="#000000" stroke="none" font-family="Arial" font-size="13px" font-style="normal" font-weight="normal" text-decoration="none" x="24.5" y="296.5">*</text></g></g><g transform="translate(-14,6) scale(1,1)"><g><path fill="none" stroke="none"/><text fill="#000000" stroke="none" font-family="Arial" font-size="13px" font-style="normal" font-weight="normal" text-decoration="none" x="23.5" y="656.5">1</text></g></g><g transform="translate(-14,6) scale(1,1)"><rect fill="#C0C0C0" stroke="none" x="383" y="375" width="104" height="56" opacity="0.2"/></g><g transform="translate(-14,6) scale(1,1)"><rect fill="#ffffff" stroke="none" x="376" y="368" width="104" height="56"/></g><g transform="translate(-14,6) scale(1,1)"><path fill="none" stroke="#000000" d="M 376 368 L 480 368 L 480 424 L 376 424 L 376 368 Z Z" stroke-miterlimit="10"/></g><g transform="translate(-14,6) scale(1,1)"><path fill="none" stroke="#000000" d="M 376 393 L 480 393" stroke-miterlimit="10"/></g><g transform="translate(-14,6) scale(1,1)"><g><path fill="none" stroke="none"/><text fill="#000000" stroke="none" font-family="Arial" font-size="13px" font-style="normal" font-weight="bold" text-decoration="none" x="403.069580078125" y="387.5">JobType</text></g></g><g transform="translate(-14,6) scale(1,1)"><g><path fill="none" stroke="none"/><text fill="#000000" stroke="none" font-family="Arial" font-size="13px" font-style="normal" font-weight="normal" text-decoration="none" x="381" y="410.5">-name: String</text></g></g><g transform="translate(-14,6) scale(1,1)"><path fill="none" stroke="#000000" d="M 376 396 L 287 396" stroke-miterlimit="10"/></g><g transform="translate(-14,6) scale(1,1)"><path fill="#FFFFFF" stroke="none" d="M 297.16267485762415 391.790482243984 L 287 396 L 297.16267485762415 400.209517756016 L 309 396"/></g><g transform="translate(-14,6) scale(1,1)"><path fill="none" stroke="#000000" d="M 297.16267485762415 391.790482243984 L 287 396 L 297.16267485762415 400.209517756016 L 309 396 L 297.16267485762415 391.790482243984" stroke-miterlimit="10"/></g><g transform="translate(-14,6) scale(1,1)"><g><path fill="none" stroke="none"/><text fill="#000000" stroke="none" font-family="Arial" font-size="13px" font-style="normal" font-weight="normal" text-decoration="none" x="321.13134765625" y="411.5">-has a</text></g></g><g transform="translate(-14,6) scale(1,1)"><path fill="none" stroke="#000000" d="M 346 463 L 288 417" stroke-miterlimit="10"/></g><g transform="translate(-14,6) scale(1,1)"><path fill="#000000" stroke="none" d="M 298.5782042337476 420.0168850142364 L 288 417 L 293.34666009483254 426.6131797980858 L 305.23694893996975 430.670683642045"/></g><g transform="translate(-14,6) scale(1,1)"><path fill="none" stroke="#000000" d="M 298.5782042337476 420.0168850142364 L 288 417 L 293.34666009483254 426.6131797980858 L 305.23694893996975 430.670683642045 L 298.5782042337476 420.0168850142364" stroke-miterlimit="10"/></g><g transform="translate(-14,6) scale(1,1)"><g><path fill="none" stroke="none"/><text fill="#000000" stroke="none" font-family="Arial" font-size="13px" font-style="normal" font-weight="normal" text-decoration="none" x="333.5" y="445.5">*</text></g></g><g transform="translate(-14,6) scale(1,1)"><g><path fill="none" stroke="none"/><text fill="#000000" stroke="none" font-family="Arial" font-size="13px" font-style="normal" font-weight="normal" text-decoration="none" x="290.13134765625" y="474.5">-has</text></g></g><g transform="translate(-14,6) scale(1,1)"><g><path fill="none" stroke="none"/><text fill="#000000" stroke="none" font-family="Arial" font-size="13px" font-style="normal" font-weight="normal" text-decoration="none" x="308.5" y="426.5">1</text></g></g><g transform="translate(-14,6) scale(1,1)"><path fill="none" stroke="#000000" d="M 480 396 L 545 396 L 545 277" stroke-miterlimit="10"/></g><g transform="translate(-14,6) scale(1,1)"><g><path fill="none" stroke="none"/><text fill="#000000" stroke="none" font-family="Arial" font-size="13px" font-style="normal" font-weight="normal" text-decoration="none" x="464.13134765625" y="346.5">-interested</text></g></g><g transform="translate(-14,6) scale(1,1)"><g><path fill="none" stroke="none"/><text fill="#000000" stroke="none" font-family="Arial" font-size="13px" font-style="normal" font-weight="normal" text-decoration="none" x="498.5" y="414.5">*</text></g></g><g transform="translate(-14,6) scale(1,1)"><g><path fill="none" stroke="none"/><text fill="#000000" stroke="none" font-family="Arial" font-size="13px" font-style="normal" font-weight="normal" text-decoration="none" x="511.5" y="300.5">1..*</text></g></g></g></svg>