<svg version="1.1" xmlns="http://www.w3.org/2000/svg" xmlns:xlink="http://www.w3.org/1999/xlink" width="875" height="1196"><defs/><g><g transform="translate(-30,-30) scale(1,1)"><rect fill="#C0C0C0" stroke="none" x="47" y="47" width="103" height="39" opacity="0.2"/></g><g transform="translate(-30,-30) scale(1,1)"><rect fill="#ffffff" stroke="none" x="40" y="40" width="103" height="39"/></g><g transform="translate(-30,-30) scale(1,1)"><path fill="none" stroke="#000000" d="M 40 40 L 143 40 L 143 79 L 40 79 L 40 40 Z Z" stroke-miterlimit="10"/></g><g transform="translate(-30,-30) scale(1,1)"><g><path fill="none" stroke="none"/><text fill="#000000" stroke="none" font-family="Arial" font-size="13px" font-style="normal" font-weight="bold" text-decoration="none" x="64.04638671875" y="59.5">Employer</text></g></g><g transform="translate(-30,-30) scale(1,1)"><path fill="none" stroke="#000000" d="M 92.5 80 L 92.5 1209" stroke-miterlimit="10" stroke-dasharray="3"/></g><g transform="translate(-30,-30) scale(1,1)"><rect fill="#C0C0C0" stroke="none" x="247" y="47" width="95" height="39" opacity="0.2"/></g><g transform="translate(-30,-30) scale(1,1)"><rect fill="#ffffff" stroke="none" x="240" y="40" width="95" height="39"/></g><g transform="translate(-30,-30) scale(1,1)"><path fill="none" stroke="#000000" d="M 240 40 L 335 40 L 335 79 L 240 79 L 240 40 Z Z" stroke-miterlimit="10"/></g><g transform="translate(-30,-30) scale(1,1)"><g><path fill="none" stroke="none"/><text fill="#000000" stroke="none" font-family="Arial" font-size="13px" font-style="normal" font-weight="bold" text-decoration="none" x="277.02001953125" y="59.5">Job</text></g></g><g transform="translate(-30,-30) scale(1,1)"><path fill="none" stroke="#000000" d="M 288.5 80 L 288.5 1216" stroke-miterlimit="10" stroke-dasharray="3"/></g><g transform="translate(-30,-30) scale(1,1)"><rect fill="#C0C0C0" stroke="none" x="423" y="47" width="103" height="39" opacity="0.2"/></g><g transform="translate(-30,-30) scale(1,1)"><rect fill="#ffffff" stroke="none" x="416" y="40" width="103" height="39"/></g><g transform="translate(-30,-30) scale(1,1)"><path fill="none" stroke="#000000" d="M 416 40 L 519 40 L 519 79 L 416 79 L 416 40 Z Z" stroke-miterlimit="10"/></g><g transform="translate(-30,-30) scale(1,1)"><g><path fill="none" stroke="none"/><text fill="#000000" stroke="none" font-family="Arial" font-size="13px" font-style="normal" font-weight="bold" text-decoration="none" x="444.740478515625" y="59.5">Queries</text></g></g><g transform="translate(-30,-30) scale(1,1)"><path fill="none" stroke="#000000" d="M 468.5 80 L 468.5 1216" stroke-miterlimit="10" stroke-dasharray="3"/></g><g transform="translate(-30,-30) scale(1,1)"><rect fill="#C0C0C0" stroke="none" x="615" y="47" width="102.07177734375" height="39" opacity="0.2"/></g><g transform="translate(-30,-30) scale(1,1)"><rect fill="#ffffff" stroke="none" x="608" y="40" width="102.07177734375" height="39"/></g><g transform="translate(-30,-30) scale(1,1)"><path fill="none" stroke="#000000" d="M 608 40 L 710.07177734375 40 L 710.07177734375 79 L 608 79 L 608 40 Z Z" stroke-miterlimit="10"/></g><g transform="translate(-30,-30) scale(1,1)"><g><path fill="none" stroke="none"/><text fill="#000000" stroke="none" font-family="Arial" font-size="13px" font-style="normal" font-weight="bold" text-decoration="none" x="634.832275390625" y="59.5">Comany</text></g></g><g transform="translate(-30,-30) scale(1,1)"><path fill="none" stroke="#000000" d="M 660.5 80 L 660.5 1216" stroke-miterlimit="10" stroke-dasharray="3"/></g><g transform="translate(-30,-30) scale(1,1)"><rect fill="#C0C0C0" stroke="none" x="783" y="47" width="119" height="39" opacity="0.2"/></g><g transform="translate(-30,-30) scale(1,1)"><rect fill="#ffffff" stroke="none" x="776" y="40" width="119" height="39"/></g><g transform="translate(-30,-30) scale(1,1)"><path fill="none" stroke="#000000" d="M 776 40 L 895 40 L 895 79 L 776 79 L 776 40 Z Z" stroke-miterlimit="10"/></g><g transform="translate(-30,-30) scale(1,1)"><g><path fill="none" stroke="none"/><text fill="#000000" stroke="none" font-family="Arial" font-size="13px" font-style="normal" font-weight="bold" text-decoration="none" x="817.075927734375" y="59.5">Profile</text></g></g><g transform="translate(-30,-30) scale(1,1)"><path fill="none" stroke="#000000" d="M 836.5 80 L 836.5 1209" stroke-miterlimit="10" stroke-dasharray="3"/></g><g transform="translate(-30,-30) scale(1,1)"><path fill="none" stroke="#000000" d="M 92 105 L 281 105" stroke-miterlimit="10"/></g><g transform="translate(-30,-30) scale(1,1)"><path fill="#000000" stroke="none" d="M 270.83732514237585 109.20951775601598 L 281 105 L 270.83732514237585 100.79048224398402"/></g><g transform="translate(-30,-30) scale(1,1)"><path fill="none" stroke="#000000" d="M 270.83732514237585 109.20951775601598 L 281 105 L 270.83732514237585 100.79048224398402 L 270.83732514237585 109.20951775601598" stroke-miterlimit="10"/></g><g transform="translate(-30,-30) scale(1,1)"><g><path fill="none" stroke="none"/><text fill="#000000" stroke="none" font-family="Arial" font-size="13px" font-style="normal" font-weight="normal" text-decoration="none" x="155.17724609375" y="101.5">1 : view all</text></g></g><g transform="translate(-30,-30) scale(1,1)"><rect fill="#ffffff" stroke="none" x="281" y="105" width="13" height="28"/></g><g transform="translate(-30,-30) scale(1,1)"><path fill="none" stroke="#000000" d="M 281 105 L 294 105 L 294 133 L 281 133 L 281 105 Z Z" stroke-miterlimit="10"/></g><g transform="translate(-30,-30) scale(1,1)"><path fill="none" stroke="#000000" d="M 281 128 L 92 128" stroke-miterlimit="10" stroke-dasharray="3"/></g><g transform="translate(-30,-30) scale(1,1)"><path fill="none" stroke="#000000" d="M 102.16267485762415 123.79048224398402 L 92 128 L 102.16267485762415 132.209517756016" stroke-miterlimit="10"/></g><g transform="translate(-30,-30) scale(1,1)"><g><path fill="none" stroke="none"/><text fill="#000000" stroke="none" font-family="Arial" font-size="13px" font-style="normal" font-weight="normal" text-decoration="none" x="123.5" y="144.5">2 : acknowledgement</text></g></g><g transform="translate(-30,-30) scale(1,1)"><path fill="none" stroke="#000000" d="M 92 178 L 281 178" stroke-miterlimit="10"/></g><g transform="translate(-30,-30) scale(1,1)"><path fill="#000000" stroke="none" d="M 270.83732514237585 182.209517756016 L 281 178 L 270.83732514237585 173.790482243984"/></g><g transform="translate(-30,-30) scale(1,1)"><path fill="none" stroke="#000000" d="M 270.83732514237585 182.209517756016 L 281 178 L 270.83732514237585 173.790482243984 L 270.83732514237585 182.209517756016" stroke-miterlimit="10"/></g><g transform="translate(-30,-30) scale(1,1)"><g><path fill="none" stroke="none"/><text fill="#000000" stroke="none" font-family="Arial" font-size="13px" font-style="normal" font-weight="normal" text-decoration="none" x="156.97998046875" y="174.5">3 : Create</text></g></g><g transform="translate(-30,-30) scale(1,1)"><rect fill="#ffffff" stroke="none" x="281" y="178" width="13" height="28"/></g><g transform="translate(-30,-30) scale(1,1)"><path fill="none" stroke="#000000" d="M 281 178 L 294 178 L 294 206 L 281 206 L 281 178 Z Z" stroke-miterlimit="10"/></g><g transform="translate(-30,-30) scale(1,1)"><path fill="none" stroke="#000000" d="M 281 193 L 92 193" stroke-miterlimit="10" stroke-dasharray="3"/></g><g transform="translate(-30,-30) scale(1,1)"><path fill="none" stroke="#000000" d="M 102.16267485762415 188.790482243984 L 92 193 L 102.16267485762415 197.209517756016" stroke-miterlimit="10"/></g><g transform="translate(-30,-30) scale(1,1)"><g><path fill="none" stroke="none"/><text fill="#000000" stroke="none" font-family="Arial" font-size="13px" font-style="normal" font-weight="normal" text-decoration="none" x="154.350341796875" y="209.5">4 : created</text></g></g><g transform="translate(-30,-30) scale(1,1)"><path fill="none" stroke="#000000" d="M 92 241 L 281 241" stroke-miterlimit="10"/></g><g transform="translate(-30,-30) scale(1,1)"><path fill="#000000" stroke="none" d="M 270.83732514237585 245.209517756016 L 281 241 L 270.83732514237585 236.790482243984"/></g><g transform="translate(-30,-30) scale(1,1)"><path fill="none" stroke="#000000" d="M 270.83732514237585 245.209517756016 L 281 241 L 270.83732514237585 236.790482243984 L 270.83732514237585 245.209517756016" stroke-miterlimit="10"/></g><g transform="translate(-30,-30) scale(1,1)"><g><path fill="none" stroke="none"/><text fill="#000000" stroke="none" font-family="Arial" font-size="13px" font-style="normal" font-weight="normal" text-decoration="none" x="123.1181640625" y="237.5">5 : Update self posted</text></g></g><g transform="translate(-30,-30) scale(1,1)"><rect fill="#ffffff" stroke="none" x="281" y="241" width="13" height="28"/></g><g transform="translate(-30,-30) scale(1,1)"><path fill="none" stroke="#000000" d="M 281 241 L 294 241 L 294 269 L 281 269 L 281 241 Z Z" stroke-miterlimit="10"/></g><g transform="translate(-30,-30) scale(1,1)"><path fill="none" stroke="#000000" d="M 281 264 L 92 264" stroke-miterlimit="10" stroke-dasharray="3"/></g><g transform="translate(-30,-30) scale(1,1)"><path fill="none" stroke="#000000" d="M 102.16267485762415 259.790482243984 L 92 264 L 102.16267485762415 268.209517756016" stroke-miterlimit="10"/></g><g transform="translate(-30,-30) scale(1,1)"><g><path fill="none" stroke="none"/><text fill="#000000" stroke="none" font-family="Arial" font-size="13px" font-style="normal" font-weight="normal" text-decoration="none" x="152.5" y="280.5">6 : updated</text></g></g><g transform="translate(-30,-30) scale(1,1)"><path fill="none" stroke="#000000" d="M 92 312 L 281 312" stroke-miterlimit="10"/></g><g transform="translate(-30,-30) scale(1,1)"><path fill="#000000" stroke="none" d="M 270.83732514237585 316.209517756016 L 281 312 L 270.83732514237585 307.790482243984"/></g><g transform="translate(-30,-30) scale(1,1)"><path fill="none" stroke="#000000" d="M 270.83732514237585 316.209517756016 L 281 312 L 270.83732514237585 307.790482243984 L 270.83732514237585 316.209517756016" stroke-miterlimit="10"/></g><g transform="translate(-30,-30) scale(1,1)"><g><path fill="none" stroke="none"/><text fill="#000000" stroke="none" font-family="Arial" font-size="13px" font-style="normal" font-weight="normal" text-decoration="none" x="137.5" y="308.5">7 : delete posted</text></g></g><g transform="translate(-30,-30) scale(1,1)"><rect fill="#ffffff" stroke="none" x="281" y="312" width="13" height="28"/></g><g transform="translate(-30,-30) scale(1,1)"><path fill="none" stroke="#000000" d="M 281 312 L 294 312 L 294 340 L 281 340 L 281 312 Z Z" stroke-miterlimit="10"/></g><g transform="translate(-30,-30) scale(1,1)"><path fill="none" stroke="#000000" d="M 281 336 L 92 336" stroke-miterlimit="10" stroke-dasharray="3"/></g><g transform="translate(-30,-30) scale(1,1)"><path fill="none" stroke="#000000" d="M 102.16267485762415 331.790482243984 L 92 336 L 102.16267485762415 340.209517756016" stroke-miterlimit="10"/></g><g transform="translate(-30,-30) scale(1,1)"><g><path fill="none" stroke="none"/><text fill="#000000" stroke="none" font-family="Arial" font-size="13px" font-style="normal" font-weight="normal" text-decoration="none" x="154.5" y="352.5">8 : deleted</text></g></g><g transform="translate(-30,-30) scale(1,1)"><path fill="none" stroke="#000000" d="M 92 384 L 461 384" stroke-miterlimit="10"/></g><g transform="translate(-30,-30) scale(1,1)"><path fill="#000000" stroke="none" d="M 450.83732514237585 388.209517756016 L 461 384 L 450.83732514237585 379.790482243984"/></g><g transform="translate(-30,-30) scale(1,1)"><path fill="none" stroke="#000000" d="M 450.83732514237585 388.209517756016 L 461 384 L 450.83732514237585 379.790482243984 L 450.83732514237585 388.209517756016" stroke-miterlimit="10"/></g><g transform="translate(-30,-30) scale(1,1)"><g><path fill="none" stroke="none"/><text fill="#000000" stroke="none" font-family="Arial" font-size="13px" font-style="normal" font-weight="normal" text-decoration="none" x="360.97998046875" y="380.5">9 : Create</text></g></g><g transform="translate(-30,-30) scale(1,1)"><rect fill="#ffffff" stroke="none" x="461" y="384" width="13" height="28"/></g><g transform="translate(-30,-30) scale(1,1)"><path fill="none" stroke="#000000" d="M 461 384 L 474 384 L 474 412 L 461 412 L 461 384 Z Z" stroke-miterlimit="10"/></g><g transform="translate(-30,-30) scale(1,1)"><path fill="none" stroke="#000000" d="M 461 408 L 92 408" stroke-miterlimit="10" stroke-dasharray="3"/></g><g transform="translate(-30,-30) scale(1,1)"><path fill="none" stroke="#000000" d="M 102.16267485762415 403.790482243984 L 92 408 L 102.16267485762415 412.209517756016" stroke-miterlimit="10"/></g><g transform="translate(-30,-30) scale(1,1)"><g><path fill="none" stroke="none"/><text fill="#000000" stroke="none" font-family="Arial" font-size="13px" font-style="normal" font-weight="normal" text-decoration="none" x="350.5" y="426.5">10 : created</text></g></g><g transform="translate(-30,-30) scale(1,1)"><path fill="none" stroke="#000000" d="M 92 456 L 461 456" stroke-miterlimit="10"/></g><g transform="translate(-30,-30) scale(1,1)"><path fill="#000000" stroke="none" d="M 450.83732514237585 460.209517756016 L 461 456 L 450.83732514237585 451.790482243984"/></g><g transform="translate(-30,-30) scale(1,1)"><path fill="none" stroke="#000000" d="M 450.83732514237585 460.209517756016 L 461 456 L 450.83732514237585 451.790482243984 L 450.83732514237585 460.209517756016" stroke-miterlimit="10"/></g><g transform="translate(-30,-30) scale(1,1)"><g><path fill="none" stroke="none"/><text fill="#000000" stroke="none" font-family="Arial" font-size="13px" font-style="normal" font-weight="normal" text-decoration="none" x="351.091796875" y="452.5">11 : View all</text></g></g><g transform="translate(-30,-30) scale(1,1)"><rect fill="#ffffff" stroke="none" x="461" y="456" width="13" height="28"/></g><g transform="translate(-30,-30) scale(1,1)"><path fill="none" stroke="#000000" d="M 461 456 L 474 456 L 474 484 L 461 484 L 461 456 Z Z" stroke-miterlimit="10"/></g><g transform="translate(-30,-30) scale(1,1)"><path fill="none" stroke="#000000" d="M 461 479 L 92 479" stroke-miterlimit="10" stroke-dasharray="3"/></g><g transform="translate(-30,-30) scale(1,1)"><path fill="none" stroke="#000000" d="M 102.16267485762415 474.790482243984 L 92 479 L 102.16267485762415 483.209517756016" stroke-miterlimit="10"/></g><g transform="translate(-30,-30) scale(1,1)"><g><path fill="none" stroke="none"/><text fill="#000000" stroke="none" font-family="Arial" font-size="13px" font-style="normal" font-weight="normal" text-decoration="none" x="342.100341796875" y="499.5">12 : results</text></g></g><g transform="translate(-30,-30) scale(1,1)"><path fill="none" stroke="#000000" d="M 92 528 L 461 528" stroke-miterlimit="10"/></g><g transform="translate(-30,-30) scale(1,1)"><path fill="#000000" stroke="none" d="M 450.83732514237585 532.209517756016 L 461 528 L 450.83732514237585 523.790482243984"/></g><g transform="translate(-30,-30) scale(1,1)"><path fill="none" stroke="#000000" d="M 450.83732514237585 532.209517756016 L 461 528 L 450.83732514237585 523.790482243984 L 450.83732514237585 532.209517756016" stroke-miterlimit="10"/></g><g transform="translate(-30,-30) scale(1,1)"><g><path fill="none" stroke="none"/><text fill="#000000" stroke="none" font-family="Arial" font-size="13px" font-style="normal" font-weight="normal" text-decoration="none" x="324.9208984375" y="524.5">13 : Update their</text></g></g><g transform="translate(-30,-30) scale(1,1)"><rect fill="#ffffff" stroke="none" x="461" y="528" width="13" height="28"/></g><g transform="translate(-30,-30) scale(1,1)"><path fill="none" stroke="#000000" d="M 461 528 L 474 528 L 474 556 L 461 556 L 461 528 Z Z" stroke-miterlimit="10"/></g><g transform="translate(-30,-30) scale(1,1)"><path fill="none" stroke="#000000" d="M 461 552 L 92 552" stroke-miterlimit="10" stroke-dasharray="3"/></g><g transform="translate(-30,-30) scale(1,1)"><path fill="none" stroke="#000000" d="M 102.16267485762415 547.790482243984 L 92 552 L 102.16267485762415 556.209517756016" stroke-miterlimit="10"/></g><g transform="translate(-30,-30) scale(1,1)"><g><path fill="none" stroke="none"/><text fill="#000000" stroke="none" font-family="Arial" font-size="13px" font-style="normal" font-weight="normal" text-decoration="none" x="334.5" y="571.5">14 : updated</text></g></g><g transform="translate(-30,-30) scale(1,1)"><path fill="none" stroke="#000000" d="M 92 603 L 461 603" stroke-miterlimit="10"/></g><g transform="translate(-30,-30) scale(1,1)"><path fill="#000000" stroke="none" d="M 450.83732514237585 607.209517756016 L 461 603 L 450.83732514237585 598.790482243984"/></g><g transform="translate(-30,-30) scale(1,1)"><path fill="none" stroke="#000000" d="M 450.83732514237585 607.209517756016 L 461 603 L 450.83732514237585 598.790482243984 L 450.83732514237585 607.209517756016" stroke-miterlimit="10"/></g><g transform="translate(-30,-30) scale(1,1)"><g><path fill="none" stroke="none"/><text fill="#000000" stroke="none" font-family="Arial" font-size="13px" font-style="normal" font-weight="normal" text-decoration="none" x="317.5" y="599.5">15 : delete their</text></g></g><g transform="translate(-30,-30) scale(1,1)"><rect fill="#ffffff" stroke="none" x="461" y="603" width="13" height="28"/></g><g transform="translate(-30,-30) scale(1,1)"><path fill="none" stroke="#000000" d="M 461 603 L 474 603 L 474 631 L 461 631 L 461 603 Z Z" stroke-miterlimit="10"/></g><g transform="translate(-30,-30) scale(1,1)"><path fill="none" stroke="#000000" d="M 461 624 L 92 624" stroke-miterlimit="10" stroke-dasharray="3"/></g><g transform="translate(-30,-30) scale(1,1)"><path fill="none" stroke="#000000" d="M 102.16267485762415 619.790482243984 L 92 624 L 102.16267485762415 628.209517756016" stroke-miterlimit="10"/></g><g transform="translate(-30,-30) scale(1,1)"><g><path fill="none" stroke="none"/><text fill="#000000" stroke="none" font-family="Arial" font-size="13px" font-style="normal" font-weight="normal" text-decoration="none" x="327.5" y="642.5">16 : deleted</text></g></g><g transform="translate(-30,-30) scale(1,1)"><path fill="none" stroke="#000000" d="M 92 688 L 653 688" stroke-miterlimit="10"/></g><g transform="translate(-30,-30) scale(1,1)"><path fill="#000000" stroke="none" d="M 642.8373251423759 692.209517756016 L 653 688 L 642.8373251423758 683.790482243984"/></g><g transform="translate(-30,-30) scale(1,1)"><path fill="none" stroke="#000000" d="M 642.8373251423759 692.209517756016 L 653 688 L 642.8373251423758 683.790482243984 L 642.8373251423759 692.209517756016" stroke-miterlimit="10"/></g><g transform="translate(-30,-30) scale(1,1)"><g><path fill="none" stroke="none"/><text fill="#000000" stroke="none" font-family="Arial" font-size="13px" font-style="normal" font-weight="normal" text-decoration="none" x="544.17724609375" y="676.5">17 : view all</text></g></g><g transform="translate(-30,-30) scale(1,1)"><rect fill="#ffffff" stroke="none" x="653" y="688" width="13" height="28"/></g><g transform="translate(-30,-30) scale(1,1)"><path fill="none" stroke="#000000" d="M 653 688 L 666 688 L 666 716 L 653 716 L 653 688 Z Z" stroke-miterlimit="10"/></g><g transform="translate(-30,-30) scale(1,1)"><path fill="none" stroke="#000000" d="M 653 708 L 92 708" stroke-miterlimit="10" stroke-dasharray="3"/></g><g transform="translate(-30,-30) scale(1,1)"><path fill="none" stroke="#000000" d="M 102.16267485762415 703.790482243984 L 92 708 L 102.16267485762415 712.209517756016" stroke-miterlimit="10"/></g><g transform="translate(-30,-30) scale(1,1)"><g><path fill="none" stroke="none"/><text fill="#000000" stroke="none" font-family="Arial" font-size="13px" font-style="normal" font-weight="normal" text-decoration="none" x="555.788818359375" y="731.5">18 : result</text></g></g><g transform="translate(-30,-30) scale(1,1)"><path fill="none" stroke="#000000" d="M 92 763 L 653 763" stroke-miterlimit="10"/></g><g transform="translate(-30,-30) scale(1,1)"><path fill="#000000" stroke="none" d="M 642.8373251423759 767.209517756016 L 653 763 L 642.8373251423758 758.790482243984"/></g><g transform="translate(-30,-30) scale(1,1)"><path fill="none" stroke="#000000" d="M 642.8373251423759 767.209517756016 L 653 763 L 642.8373251423758 758.790482243984 L 642.8373251423759 767.209517756016" stroke-miterlimit="10"/></g><g transform="translate(-30,-30) scale(1,1)"><g><path fill="none" stroke="none"/><text fill="#000000" stroke="none" font-family="Arial" font-size="13px" font-style="normal" font-weight="normal" text-decoration="none" x="531.424072265625" y="756.5">19 : create</text></g></g><g transform="translate(-30,-30) scale(1,1)"><rect fill="#ffffff" stroke="none" x="653" y="763" width="13" height="28"/></g><g transform="translate(-30,-30) scale(1,1)"><path fill="none" stroke="#000000" d="M 653 763 L 666 763 L 666 791 L 653 791 L 653 763 Z Z" stroke-miterlimit="10"/></g><g transform="translate(-30,-30) scale(1,1)"><path fill="none" stroke="#000000" d="M 653 784 L 92 784" stroke-miterlimit="10" stroke-dasharray="3"/></g><g transform="translate(-30,-30) scale(1,1)"><path fill="none" stroke="#000000" d="M 102.16267485762415 779.790482243984 L 92 784 L 102.16267485762415 788.209517756016" stroke-miterlimit="10"/></g><g transform="translate(-30,-30) scale(1,1)"><g><path fill="none" stroke="none"/><text fill="#000000" stroke="none" font-family="Arial" font-size="13px" font-style="normal" font-weight="normal" text-decoration="none" x="530.5" y="799.5">20 : created</text></g></g><g transform="translate(-30,-30) scale(1,1)"><path fill="none" stroke="#000000" d="M 92 824 L 653 824" stroke-miterlimit="10"/></g><g transform="translate(-30,-30) scale(1,1)"><path fill="#000000" stroke="none" d="M 642.8373251423759 828.209517756016 L 653 824 L 642.8373251423758 819.790482243984"/></g><g transform="translate(-30,-30) scale(1,1)"><path fill="none" stroke="#000000" d="M 642.8373251423759 828.209517756016 L 653 824 L 642.8373251423758 819.790482243984 L 642.8373251423759 828.209517756016" stroke-miterlimit="10"/></g><g transform="translate(-30,-30) scale(1,1)"><g><path fill="none" stroke="none"/><text fill="#000000" stroke="none" font-family="Arial" font-size="13px" font-style="normal" font-weight="normal" text-decoration="none" x="519.5" y="820.5">21 : update their</text></g></g><g transform="translate(-30,-30) scale(1,1)"><rect fill="#ffffff" stroke="none" x="653" y="824" width="13" height="28"/></g><g transform="translate(-30,-30) scale(1,1)"><path fill="none" stroke="#000000" d="M 653 824 L 666 824 L 666 852 L 653 852 L 653 824 Z Z" stroke-miterlimit="10"/></g><g transform="translate(-30,-30) scale(1,1)"><path fill="none" stroke="#000000" d="M 653 844 L 92 844" stroke-miterlimit="10" stroke-dasharray="3"/></g><g transform="translate(-30,-30) scale(1,1)"><path fill="none" stroke="#000000" d="M 102.16267485762415 839.790482243984 L 92 844 L 102.16267485762415 848.209517756016" stroke-miterlimit="10"/></g><g transform="translate(-30,-30) scale(1,1)"><g><path fill="none" stroke="none"/><text fill="#000000" stroke="none" font-family="Arial" font-size="13px" font-style="normal" font-weight="normal" text-decoration="none" x="534.5" y="859.5">22 : updated</text></g></g><g transform="translate(-30,-30) scale(1,1)"><path fill="none" stroke="#000000" d="M 92 886 L 653 886" stroke-miterlimit="10"/></g><g transform="translate(-30,-30) scale(1,1)"><path fill="#000000" stroke="none" d="M 642.8373251423759 890.209517756016 L 653 886 L 642.8373251423758 881.790482243984"/></g><g transform="translate(-30,-30) scale(1,1)"><path fill="none" stroke="#000000" d="M 642.8373251423759 890.209517756016 L 653 886 L 642.8373251423758 881.790482243984 L 642.8373251423759 890.209517756016" stroke-miterlimit="10"/></g><g transform="translate(-30,-30) scale(1,1)"><g><path fill="none" stroke="none"/><text fill="#000000" stroke="none" font-family="Arial" font-size="13px" font-style="normal" font-weight="normal" text-decoration="none" x="535.5" y="882.5">23 : delete their</text></g></g><g transform="translate(-30,-30) scale(1,1)"><rect fill="#ffffff" stroke="none" x="653" y="886" width="13" height="28"/></g><g transform="translate(-30,-30) scale(1,1)"><path fill="none" stroke="#000000" d="M 653 886 L 666 886 L 666 914 L 653 914 L 653 886 Z Z" stroke-miterlimit="10"/></g><g transform="translate(-30,-30) scale(1,1)"><path fill="none" stroke="#000000" d="M 653 904 L 92 904" stroke-miterlimit="10" stroke-dasharray="3"/></g><g transform="translate(-30,-30) scale(1,1)"><path fill="none" stroke="#000000" d="M 102.16267485762415 899.790482243984 L 92 904 L 102.16267485762415 908.209517756016" stroke-miterlimit="10"/></g><g transform="translate(-30,-30) scale(1,1)"><g><path fill="none" stroke="none"/><text fill="#000000" stroke="none" font-family="Arial" font-size="13px" font-style="normal" font-weight="normal" text-decoration="none" x="535.5" y="923.5">24 : deleted</text></g></g><g transform="translate(-30,-30) scale(1,1)"><path fill="none" stroke="#000000" d="M 92 930 L 829 930" stroke-miterlimit="10"/></g><g transform="translate(-30,-30) scale(1,1)"><path fill="#000000" stroke="none" d="M 818.8373251423759 934.209517756016 L 829 930 L 818.8373251423758 925.790482243984"/></g><g transform="translate(-30,-30) scale(1,1)"><path fill="none" stroke="#000000" d="M 818.8373251423759 934.209517756016 L 829 930 L 818.8373251423758 925.790482243984 L 818.8373251423759 934.209517756016" stroke-miterlimit="10"/></g><g transform="translate(-30,-30) scale(1,1)"><g><path fill="none" stroke="none"/><text fill="#000000" stroke="none" font-family="Arial" font-size="13px" font-style="normal" font-weight="normal" text-decoration="none" x="703.091796875" y="924.5">25 : View all</text></g></g><g transform="translate(-30,-30) scale(1,1)"><rect fill="#ffffff" stroke="none" x="829" y="930" width="13" height="28"/></g><g transform="translate(-30,-30) scale(1,1)"><path fill="none" stroke="#000000" d="M 829 930 L 842 930 L 842 958 L 829 958 L 829 930 Z Z" stroke-miterlimit="10"/></g><g transform="translate(-30,-30) scale(1,1)"><path fill="none" stroke="#000000" d="M 829 953 L 92 953" stroke-miterlimit="10" stroke-dasharray="3"/></g><g transform="translate(-30,-30) scale(1,1)"><path fill="none" stroke="#000000" d="M 102.16267485762415 948.790482243984 L 92 953 L 102.16267485762415 957.209517756016" stroke-miterlimit="10"/></g><g transform="translate(-30,-30) scale(1,1)"><g><path fill="none" stroke="none"/><text fill="#000000" stroke="none" font-family="Arial" font-size="13px" font-style="normal" font-weight="normal" text-decoration="none" x="703.5" y="971.5">26 : result</text></g></g><g transform="translate(-30,-30) scale(1,1)"><path fill="none" stroke="#000000" d="M 92 996 L 829 996" stroke-miterlimit="10"/></g><g transform="translate(-30,-30) scale(1,1)"><path fill="#000000" stroke="none" d="M 818.8373251423759 1000.209517756016 L 829 996 L 818.8373251423758 991.790482243984"/></g><g transform="translate(-30,-30) scale(1,1)"><path fill="none" stroke="#000000" d="M 818.8373251423759 1000.209517756016 L 829 996 L 818.8373251423758 991.790482243984 L 818.8373251423759 1000.209517756016" stroke-miterlimit="10"/></g><g transform="translate(-30,-30) scale(1,1)"><g><path fill="none" stroke="none"/><text fill="#000000" stroke="none" font-family="Arial" font-size="13px" font-style="normal" font-weight="normal" text-decoration="none" x="679.503173828125" y="992.5">27 : create self</text></g></g><g transform="translate(-30,-30) scale(1,1)"><rect fill="#ffffff" stroke="none" x="829" y="996" width="13" height="28"/></g><g transform="translate(-30,-30) scale(1,1)"><path fill="none" stroke="#000000" d="M 829 996 L 842 996 L 842 1024 L 829 1024 L 829 996 Z Z" stroke-miterlimit="10"/></g><g transform="translate(-30,-30) scale(1,1)"><path fill="none" stroke="#000000" d="M 829 1016 L 92 1016" stroke-miterlimit="10" stroke-dasharray="3"/></g><g transform="translate(-30,-30) scale(1,1)"><path fill="none" stroke="#000000" d="M 102.16267485762415 1011.790482243984 L 92 1016 L 102.16267485762415 1020.209517756016" stroke-miterlimit="10"/></g><g transform="translate(-30,-30) scale(1,1)"><g><path fill="none" stroke="none"/><text fill="#000000" stroke="none" font-family="Arial" font-size="13px" font-style="normal" font-weight="normal" text-decoration="none" x="690.5" y="1035.5">28 : created</text></g></g><g transform="translate(-30,-30) scale(1,1)"><path fill="none" stroke="#000000" d="M 92 1072 L 829 1072" stroke-miterlimit="10"/></g><g transform="translate(-30,-30) scale(1,1)"><path fill="#000000" stroke="none" d="M 818.8373251423759 1076.2095177560159 L 829 1072 L 818.8373251423758 1067.7904822439841"/></g><g transform="translate(-30,-30) scale(1,1)"><path fill="none" stroke="#000000" d="M 818.8373251423759 1076.2095177560159 L 829 1072 L 818.8373251423758 1067.7904822439841 L 818.8373251423759 1076.2095177560159" stroke-miterlimit="10"/></g><g transform="translate(-30,-30) scale(1,1)"><g><path fill="none" stroke="none"/><text fill="#000000" stroke="none" font-family="Arial" font-size="13px" font-style="normal" font-weight="normal" text-decoration="none" x="696.944091796875" y="1060.5">29 : update self</text></g></g><g transform="translate(-30,-30) scale(1,1)"><rect fill="#ffffff" stroke="none" x="829" y="1072" width="13" height="28"/></g><g transform="translate(-30,-30) scale(1,1)"><path fill="none" stroke="#000000" d="M 829 1072 L 842 1072 L 842 1100 L 829 1100 L 829 1072 Z Z" stroke-miterlimit="10"/></g><g transform="translate(-30,-30) scale(1,1)"><path fill="none" stroke="#000000" d="M 829 1098 L 92 1098" stroke-miterlimit="10" stroke-dasharray="3"/></g><g transform="translate(-30,-30) scale(1,1)"><path fill="none" stroke="#000000" d="M 102.16267485762415 1093.7904822439841 L 92 1098 L 102.16267485762415 1102.2095177560159" stroke-miterlimit="10"/></g><g transform="translate(-30,-30) scale(1,1)"><g><path fill="none" stroke="none"/><text fill="#000000" stroke="none" font-family="Arial" font-size="13px" font-style="normal" font-weight="normal" text-decoration="none" x="702.5" y="1115.5">30 : updated</text></g></g><g transform="translate(-30,-30) scale(1,1)"><path fill="none" stroke="#000000" d="M 92 1151 L 829 1151" stroke-miterlimit="10"/></g><g transform="translate(-30,-30) scale(1,1)"><path fill="#000000" stroke="none" d="M 818.8373251423759 1155.2095177560159 L 829 1151 L 818.8373251423758 1146.7904822439841"/></g><g transform="translate(-30,-30) scale(1,1)"><path fill="none" stroke="#000000" d="M 818.8373251423759 1155.2095177560159 L 829 1151 L 818.8373251423758 1146.7904822439841 L 818.8373251423759 1155.2095177560159" stroke-miterlimit="10"/></g><g transform="translate(-30,-30) scale(1,1)"><g><path fill="none" stroke="none"/><text fill="#000000" stroke="none" font-family="Arial" font-size="13px" font-style="normal" font-weight="normal" text-decoration="none" x="703.864990234375" y="1147.5">31 : delete self</text></g></g><g transform="translate(-30,-30) scale(1,1)"><rect fill="#ffffff" stroke="none" x="829" y="1151" width="13" height="28"/></g><g transform="translate(-30,-30) scale(1,1)"><path fill="none" stroke="#000000" d="M 829 1151 L 842 1151 L 842 1179 L 829 1179 L 829 1151 Z Z" stroke-miterlimit="10"/></g><g transform="translate(-30,-30) scale(1,1)"><path fill="none" stroke="#000000" d="M 829 1178 L 92 1178" stroke-miterlimit="10" stroke-dasharray="3"/></g><g transform="translate(-30,-30) scale(1,1)"><path fill="none" stroke="#000000" d="M 102.16267485762415 1173.7904822439841 L 92 1178 L 102.16267485762415 1182.2095177560159" stroke-miterlimit="10"/></g><g transform="translate(-30,-30) scale(1,1)"><g><path fill="none" stroke="none"/><text fill="#000000" stroke="none" font-family="Arial" font-size="13px" font-style="normal" font-weight="normal" text-decoration="none" x="707.5" y="1195.5">32 : deleted</text></g></g></g></svg>