<svg version="1.1" xmlns="http://www.w3.org/2000/svg" xmlns:xlink="http://www.w3.org/1999/xlink" width="675" height="355"><defs/><g><g transform="translate(-22,-30) scale(1,1)"><rect fill="#C0C0C0" stroke="none" x="39" y="47" width="95" height="39" opacity="0.2"/></g><g transform="translate(-22,-30) scale(1,1)"><rect fill="#ffffff" stroke="none" x="32" y="40" width="95" height="39"/></g><g transform="translate(-22,-30) scale(1,1)"><path fill="none" stroke="#000000" d="M 32 40 L 127 40 L 127 79 L 32 79 L 32 40 Z Z" stroke-miterlimit="10"/></g><g transform="translate(-22,-30) scale(1,1)"><g><path fill="none" stroke="none"/><text fill="#000000" stroke="none" font-family="Arial" font-size="13px" font-style="normal" font-weight="bold" text-decoration="none" x="65.7763671875" y="59.5">User</text></g></g><g transform="translate(-22,-30) scale(1,1)"><path fill="none" stroke="#000000" d="M 80.5 80 L 80.5 375" stroke-miterlimit="10" stroke-dasharray="3"/></g><g transform="translate(-22,-30) scale(1,1)"><rect fill="#C0C0C0" stroke="none" x="175" y="47" width="95" height="39" opacity="0.2"/></g><g transform="translate(-22,-30) scale(1,1)"><rect fill="#ffffff" stroke="none" x="168" y="40" width="95" height="39"/></g><g transform="translate(-22,-30) scale(1,1)"><path fill="none" stroke="#000000" d="M 168 40 L 263 40 L 263 79 L 168 79 L 168 40 Z Z" stroke-miterlimit="10"/></g><g transform="translate(-22,-30) scale(1,1)"><g><path fill="none" stroke="none"/><text fill="#000000" stroke="none" font-family="Arial" font-size="13px" font-style="normal" font-weight="bold" text-decoration="none" x="193.8291015625" y="59.5">System</text></g></g><g transform="translate(-22,-30) scale(1,1)"><path fill="none" stroke="#000000" d="M 216.5 80 L 216.5 375" stroke-miterlimit="10" stroke-dasharray="3"/></g><g transform="translate(-22,-30) scale(1,1)"><rect fill="#C0C0C0" stroke="none" x="311" y="47" width="103" height="39" opacity="0.2"/></g><g transform="translate(-22,-30) scale(1,1)"><rect fill="#ffffff" stroke="none" x="304" y="40" width="103" height="39"/></g><g transform="translate(-22,-30) scale(1,1)"><path fill="none" stroke="#000000" d="M 304 40 L 407 40 L 407 79 L 304 79 L 304 40 Z Z" stroke-miterlimit="10"/></g><g transform="translate(-22,-30) scale(1,1)"><g><path fill="none" stroke="none"/><text fill="#000000" stroke="none" font-family="Arial" font-size="13px" font-style="normal" font-weight="bold" text-decoration="none" x="345.02001953125" y="59.5">Job</text></g></g><g transform="translate(-22,-30) scale(1,1)"><path fill="none" stroke="#000000" d="M 356.5 80 L 356.5 360" stroke-miterlimit="10" stroke-dasharray="3"/></g><g transform="translate(-22,-30) scale(1,1)"><rect fill="#C0C0C0" stroke="none" x="455" y="47" width="103" height="39" opacity="0.2"/></g><g transform="translate(-22,-30) scale(1,1)"><rect fill="#ffffff" stroke="none" x="448" y="40" width="103" height="39"/></g><g transform="translate(-22,-30) scale(1,1)"><path fill="none" stroke="#000000" d="M 448 40 L 551 40 L 551 79 L 448 79 L 448 40 Z Z" stroke-miterlimit="10"/></g><g transform="translate(-22,-30) scale(1,1)"><g><path fill="none" stroke="none"/><text fill="#000000" stroke="none" font-family="Arial" font-size="13px" font-style="normal" font-weight="bold" text-decoration="none" x="476.740478515625" y="59.5">Queries</text></g></g><g transform="translate(-22,-30) scale(1,1)"><path fill="none" stroke="#000000" d="M 500.5 80 L 500.5 368" stroke-miterlimit="10" stroke-dasharray="3"/></g><g transform="translate(-22,-30) scale(1,1)"><rect fill="#C0C0C0" stroke="none" x="599" y="47" width="95" height="39" opacity="0.2"/></g><g transform="translate(-22,-30) scale(1,1)"><rect fill="#ffffff" stroke="none" x="592" y="40" width="95" height="39"/></g><g transform="translate(-22,-30) scale(1,1)"><path fill="none" stroke="#000000" d="M 592 40 L 687 40 L 687 79 L 592 79 L 592 40 Z Z" stroke-miterlimit="10"/></g><g transform="translate(-22,-30) scale(1,1)"><g><path fill="none" stroke="none"/><text fill="#000000" stroke="none" font-family="Arial" font-size="13px" font-style="normal" font-weight="bold" text-decoration="none" x="611.681396484375" y="59.5">Company</text></g></g><g transform="translate(-22,-30) scale(1,1)"><path fill="none" stroke="#000000" d="M 640.5 80 L 640.5 369" stroke-miterlimit="10" stroke-dasharray="3"/></g><g transform="translate(-22,-30) scale(1,1)"><path fill="none" stroke="#000000" d="M 80 104 L 209 104" stroke-miterlimit="10"/></g><g transform="translate(-22,-30) scale(1,1)"><path fill="#000000" stroke="none" d="M 198.83732514237585 108.20951775601598 L 209 104 L 198.83732514237585 99.79048224398402"/></g><g transform="translate(-22,-30) scale(1,1)"><path fill="none" stroke="#000000" d="M 198.83732514237585 108.20951775601598 L 209 104 L 198.83732514237585 99.79048224398402 L 198.83732514237585 108.20951775601598" stroke-miterlimit="10"/></g><g transform="translate(-22,-30) scale(1,1)"><g><path fill="none" stroke="none"/><text fill="#000000" stroke="none" font-family="Arial" font-size="13px" font-style="normal" font-weight="normal" text-decoration="none" x="99.5" y="100.5">1 : request jobs</text></g></g><g transform="translate(-22,-30) scale(1,1)"><rect fill="#ffffff" stroke="none" x="209" y="104" width="13" height="88"/></g><g transform="translate(-22,-30) scale(1,1)"><path fill="none" stroke="#000000" d="M 209 104 L 222 104 L 222 192 L 209 192 L 209 104 Z Z" stroke-miterlimit="10"/></g><g transform="translate(-22,-30) scale(1,1)"><path fill="none" stroke="#000000" d="M 222 117 L 349 117" stroke-miterlimit="10"/></g><g transform="translate(-22,-30) scale(1,1)"><path fill="#000000" stroke="none" d="M 338.83732514237585 121.20951775601598 L 349 117 L 338.83732514237585 112.79048224398402"/></g><g transform="translate(-22,-30) scale(1,1)"><path fill="none" stroke="#000000" d="M 338.83732514237585 121.20951775601598 L 349 117 L 338.83732514237585 112.79048224398402 L 338.83732514237585 121.20951775601598" stroke-miterlimit="10"/></g><g transform="translate(-22,-30) scale(1,1)"><g><path fill="none" stroke="none"/><text fill="#000000" stroke="none" font-family="Arial" font-size="13px" font-style="normal" font-weight="normal" text-decoration="none" x="247.667724609375" y="113.5">2 : fetch jobs</text></g></g><g transform="translate(-22,-30) scale(1,1)"><rect fill="#ffffff" stroke="none" x="349" y="117" width="13" height="59"/></g><g transform="translate(-22,-30) scale(1,1)"><path fill="none" stroke="#000000" d="M 349 117 L 362 117 L 362 176 L 349 176 L 349 117 Z Z" stroke-miterlimit="10"/></g><g transform="translate(-22,-30) scale(1,1)"><path fill="none" stroke="#000000" d="M 362 121 L 493 121" stroke-miterlimit="10"/></g><g transform="translate(-22,-30) scale(1,1)"><path fill="#000000" stroke="none" d="M 482.83732514237585 125.20951775601598 L 493 121 L 482.83732514237585 116.79048224398402"/></g><g transform="translate(-22,-30) scale(1,1)"><path fill="none" stroke="#000000" d="M 482.83732514237585 125.20951775601598 L 493 121 L 482.83732514237585 116.79048224398402 L 482.83732514237585 125.20951775601598" stroke-miterlimit="10"/></g><g transform="translate(-22,-30) scale(1,1)"><g><path fill="none" stroke="none"/><text fill="#000000" stroke="none" font-family="Arial" font-size="13px" font-style="normal" font-weight="normal" text-decoration="none" x="380.5" y="117.5">3 : fetch queries</text></g></g><g transform="translate(-22,-30) scale(1,1)"><rect fill="#ffffff" stroke="none" x="493" y="121" width="13" height="39"/></g><g transform="translate(-22,-30) scale(1,1)"><path fill="none" stroke="#000000" d="M 493 121 L 506 121 L 506 160 L 493 160 L 493 121 Z Z" stroke-miterlimit="10"/></g><g transform="translate(-22,-30) scale(1,1)"><path fill="none" stroke="#000000" d="M 506 130 L 633 130" stroke-miterlimit="10"/></g><g transform="translate(-22,-30) scale(1,1)"><path fill="#000000" stroke="none" d="M 622.8373251423759 134.209517756016 L 633 130 L 622.8373251423758 125.79048224398402"/></g><g transform="translate(-22,-30) scale(1,1)"><path fill="none" stroke="#000000" d="M 622.8373251423759 134.209517756016 L 633 130 L 622.8373251423758 125.79048224398402 L 622.8373251423759 134.209517756016" stroke-miterlimit="10"/></g><g transform="translate(-22,-30) scale(1,1)"><g><path fill="none" stroke="none"/><text fill="#000000" stroke="none" font-family="Arial" font-size="13px" font-style="normal" font-weight="normal" text-decoration="none" x="517.5" y="126.5">4 : fetch company</text></g></g><g transform="translate(-22,-30) scale(1,1)"><rect fill="#ffffff" stroke="none" x="633" y="130" width="13" height="28"/></g><g transform="translate(-22,-30) scale(1,1)"><path fill="none" stroke="#000000" d="M 633 130 L 646 130 L 646 158 L 633 158 L 633 130 Z Z" stroke-miterlimit="10"/></g><g transform="translate(-22,-30) scale(1,1)"><path fill="none" stroke="#000000" d="M 633 144 L 506 144" stroke-miterlimit="10" stroke-dasharray="3"/></g><g transform="translate(-22,-30) scale(1,1)"><path fill="none" stroke="#000000" d="M 516.1626748576241 139.790482243984 L 506 144 L 516.1626748576241 148.209517756016" stroke-miterlimit="10"/></g><g transform="translate(-22,-30) scale(1,1)"><g><path fill="none" stroke="none"/><text fill="#000000" stroke="none" font-family="Arial" font-size="13px" font-style="normal" font-weight="normal" text-decoration="none" x="518.5" y="163.5">5 : company details</text></g></g><g transform="translate(-22,-30) scale(1,1)"><path fill="none" stroke="#000000" d="M 493 149 L 362 149" stroke-miterlimit="10" stroke-dasharray="3"/></g><g transform="translate(-22,-30) scale(1,1)"><path fill="none" stroke="#000000" d="M 372.16267485762415 144.790482243984 L 362 149 L 372.16267485762415 153.209517756016" stroke-miterlimit="10"/></g><g transform="translate(-22,-30) scale(1,1)"><g><path fill="none" stroke="none"/><text fill="#000000" stroke="none" font-family="Arial" font-size="13px" font-style="normal" font-weight="normal" text-decoration="none" x="376.5" y="165.5">6 : return queries</text></g></g><g transform="translate(-22,-30) scale(1,1)"><path fill="none" stroke="#000000" d="M 349 168 L 222 168" stroke-miterlimit="10" stroke-dasharray="3"/></g><g transform="translate(-22,-30) scale(1,1)"><path fill="none" stroke="#000000" d="M 232.16267485762415 163.790482243984 L 222 168 L 232.16267485762415 172.209517756016" stroke-miterlimit="10"/></g><g transform="translate(-22,-30) scale(1,1)"><g><path fill="none" stroke="none"/><text fill="#000000" stroke="none" font-family="Arial" font-size="13px" font-style="normal" font-weight="normal" text-decoration="none" x="244.5" y="184.5">7 : return jobs</text></g></g><g transform="translate(-22,-30) scale(1,1)"><path fill="none" stroke="#000000" d="M 209 186 L 80 186" stroke-miterlimit="10" stroke-dasharray="3"/></g><g transform="translate(-22,-30) scale(1,1)"><path fill="none" stroke="#000000" d="M 90.16267485762415 181.790482243984 L 80 186 L 90.16267485762415 190.209517756016" stroke-miterlimit="10"/></g><g transform="translate(-22,-30) scale(1,1)"><g><path fill="none" stroke="none"/><text fill="#000000" stroke="none" font-family="Arial" font-size="13px" font-style="normal" font-weight="normal" text-decoration="none" x="103.5" y="202.5">8 : return jobs</text></g></g><g transform="translate(-22,-30) scale(1,1)"><path fill="none" stroke="#000000" d="M 80 216 L 209 216" stroke-miterlimit="10"/></g><g transform="translate(-22,-30) scale(1,1)"><path fill="#000000" stroke="none" d="M 198.83732514237585 220.209517756016 L 209 216 L 198.83732514237585 211.790482243984"/></g><g transform="translate(-22,-30) scale(1,1)"><path fill="none" stroke="#000000" d="M 198.83732514237585 220.209517756016 L 209 216 L 198.83732514237585 211.790482243984 L 198.83732514237585 220.209517756016" stroke-miterlimit="10"/></g><g transform="translate(-22,-30) scale(1,1)"><g><path fill="none" stroke="none"/><text fill="#000000" stroke="none" font-family="Arial" font-size="13px" font-style="normal" font-weight="normal" text-decoration="none" x="94.114990234375" y="236.5">9 : apply for job</text></g></g><g transform="translate(-22,-30) scale(1,1)"><rect fill="#ffffff" stroke="none" x="209" y="216" width="13" height="40"/></g><g transform="translate(-22,-30) scale(1,1)"><path fill="none" stroke="#000000" d="M 209 216 L 222 216 L 222 256 L 209 256 L 209 216 Z Z" stroke-miterlimit="10"/></g><g transform="translate(-22,-30) scale(1,1)"><path fill="none" stroke="#000000" d="M 222 225 L 349 225" stroke-miterlimit="10"/></g><g transform="translate(-22,-30) scale(1,1)"><path fill="#000000" stroke="none" d="M 338.83732514237585 229.209517756016 L 349 225 L 338.83732514237585 220.790482243984"/></g><g transform="translate(-22,-30) scale(1,1)"><path fill="none" stroke="#000000" d="M 338.83732514237585 229.209517756016 L 349 225 L 338.83732514237585 220.790482243984 L 338.83732514237585 229.209517756016" stroke-miterlimit="10"/></g><g transform="translate(-22,-30) scale(1,1)"><g><path fill="none" stroke="none"/><text fill="#000000" stroke="none" font-family="Arial" font-size="13px" font-style="normal" font-weight="normal" text-decoration="none" x="256.950439453125" y="221.5">10 : apply</text></g></g><g transform="translate(-22,-30) scale(1,1)"><rect fill="#ffffff" stroke="none" x="349" y="225" width="13" height="28"/></g><g transform="translate(-22,-30) scale(1,1)"><path fill="none" stroke="#000000" d="M 349 225 L 362 225 L 362 253 L 349 253 L 349 225 Z Z" stroke-miterlimit="10"/></g><g transform="translate(-22,-30) scale(1,1)"><path fill="none" stroke="#000000" d="M 349 240 L 222 240" stroke-miterlimit="10" stroke-dasharray="3"/></g><g transform="translate(-22,-30) scale(1,1)"><path fill="none" stroke="#000000" d="M 232.16267485762415 235.790482243984 L 222 240 L 232.16267485762415 244.209517756016" stroke-miterlimit="10"/></g><g transform="translate(-22,-30) scale(1,1)"><g><path fill="none" stroke="none"/><text fill="#000000" stroke="none" font-family="Arial" font-size="13px" font-style="normal" font-weight="normal" text-decoration="none" x="220.5" y="267.5">11 : acknowledgement</text></g></g><g transform="translate(-22,-30) scale(1,1)"><path fill="none" stroke="#000000" d="M 209 249 L 80 249" stroke-miterlimit="10" stroke-dasharray="3"/></g><g transform="translate(-22,-30) scale(1,1)"><path fill="none" stroke="#000000" d="M 90.16267485762415 244.790482243984 L 80 249 L 90.16267485762415 253.209517756016" stroke-miterlimit="10"/></g><g transform="translate(-22,-30) scale(1,1)"><g><path fill="none" stroke="none"/><text fill="#000000" stroke="none" font-family="Arial" font-size="13px" font-style="normal" font-weight="normal" text-decoration="none" x="100.5" y="265.5">12 : successful</text></g></g><g transform="translate(-22,-30) scale(1,1)"><path fill="none" stroke="#000000" d="M 80 306 L 209 306" stroke-miterlimit="10"/></g><g transform="translate(-22,-30) scale(1,1)"><path fill="#000000" stroke="none" d="M 198.83732514237585 310.209517756016 L 209 306 L 198.83732514237585 301.790482243984"/></g><g transform="translate(-22,-30) scale(1,1)"><path fill="none" stroke="#000000" d="M 198.83732514237585 310.209517756016 L 209 306 L 198.83732514237585 301.790482243984 L 198.83732514237585 310.209517756016" stroke-miterlimit="10"/></g><g transform="translate(-22,-30) scale(1,1)"><g><path fill="none" stroke="none"/><text fill="#000000" stroke="none" font-family="Arial" font-size="13px" font-style="normal" font-weight="normal" text-decoration="none" x="81.5" y="300.5">13 : request company</text></g></g><g transform="translate(-22,-30) scale(1,1)"><rect fill="#ffffff" stroke="none" x="209" y="306" width="13" height="46"/></g><g transform="translate(-22,-30) scale(1,1)"><path fill="none" stroke="#000000" d="M 209 306 L 222 306 L 222 352 L 209 352 L 209 306 Z Z" stroke-miterlimit="10"/></g><g transform="translate(-22,-30) scale(1,1)"><path fill="none" stroke="#000000" d="M 222 320 L 633 320" stroke-miterlimit="10"/></g><g transform="translate(-22,-30) scale(1,1)"><path fill="#000000" stroke="none" d="M 622.8373251423759 324.209517756016 L 633 320 L 622.8373251423758 315.790482243984"/></g><g transform="translate(-22,-30) scale(1,1)"><path fill="none" stroke="#000000" d="M 622.8373251423759 324.209517756016 L 633 320 L 622.8373251423758 315.790482243984 L 622.8373251423759 324.209517756016" stroke-miterlimit="10"/></g><g transform="translate(-22,-30) scale(1,1)"><g><path fill="none" stroke="none"/><text fill="#000000" stroke="none" font-family="Arial" font-size="13px" font-style="normal" font-weight="normal" text-decoration="none" x="519.5" y="316.5">14 : fetch company</text></g></g><g transform="translate(-22,-30) scale(1,1)"><rect fill="#ffffff" stroke="none" x="633" y="320" width="13" height="28"/></g><g transform="translate(-22,-30) scale(1,1)"><path fill="none" stroke="#000000" d="M 633 320 L 646 320 L 646 348 L 633 348 L 633 320 Z Z" stroke-miterlimit="10"/></g><g transform="translate(-22,-30) scale(1,1)"><path fill="none" stroke="#000000" d="M 633 336 L 222 336" stroke-miterlimit="10" stroke-dasharray="3"/></g><g transform="translate(-22,-30) scale(1,1)"><path fill="none" stroke="#000000" d="M 232.16267485762415 331.790482243984 L 222 336 L 232.16267485762415 340.209517756016" stroke-miterlimit="10"/></g><g transform="translate(-22,-30) scale(1,1)"><g><path fill="none" stroke="none"/><text fill="#000000" stroke="none" font-family="Arial" font-size="13px" font-style="normal" font-weight="normal" text-decoration="none" x="503.5" y="355.5">15 : company details</text></g></g><g transform="translate(-22,-30) scale(1,1)"><path fill="none" stroke="#000000" d="M 209 345 L 80 345" stroke-miterlimit="10" stroke-dasharray="3"/></g><g transform="translate(-22,-30) scale(1,1)"><path fill="none" stroke="#000000" d="M 90.16267485762415 340.790482243984 L 80 345 L 90.16267485762415 349.209517756016" stroke-miterlimit="10"/></g><g transform="translate(-22,-30) scale(1,1)"><g><path fill="none" stroke="none"/><text fill="#000000" stroke="none" font-family="Arial" font-size="13px" font-style="normal" font-weight="normal" text-decoration="none" x="85.5" y="361.5">16 : return company</text></g></g></g></svg>